<svg id="Layer_1" data-name="Layer 1" xmlns="http://www.w3.org/2000/svg" viewBox="0 0 891.45 899.25"><defs><style>.cls-1{fill:#ffff0f;}</style></defs><path class="cls-1" d="M499.25,952q-95.92,0-177.45-33.27T179.7,825.78Q119.15,766.13,85.28,685.2T51.42,508.94q0-101.31,33-184.94t93.22-144.49q60.24-60.84,143-93.81t181.66-33q113.29,0,198.13,36.28t140,98.31Q895.5,249.38,921,326.7a436.77,436.77,0,0,1,21.3,160.06q-6,113.29-53.66,170.86T755.83,715.17q-55.17,0-95.92-25.78t-54.55-72.53l28.78,3q-21,42.58-62.66,61.77a205,205,0,0,1-86.62,19.17q-54.57,0-95.63-23.67a167.35,167.35,0,0,1-64.14-65.66Q302,569.5,302,514.34q0-57.56,24-99.51a165.7,165.7,0,0,1,66-64.75q42-22.79,94.72-22.79,38.94,0,80.62,16.19t63.86,52.75l-23.39,26.38V344.08H671.3l-.6,194.84q0,44.37,20.68,72.23T760,639q32.37,0,54.25-18t33.88-50.65q12-32.67,13.78-77,3.6-91.12-23.38-159.47t-76.75-114.2Q712.06,173.84,646.42,151t-140-22.78q-89.94,0-159.77,30T228.56,241a355.44,355.44,0,0,0-72.83,121.39q-24.58,68.64-23.37,146,.58,79.74,29.06,147.19t78.85,116.89q50.34,49.46,117.5,76.73t145.67,27.29a409.49,409.49,0,0,0,102.22-13.19q51.26-13.2,91.42-36.58l28.19,67.16a441.85,441.85,0,0,1-109.72,43.76A478.46,478.46,0,0,1,499.25,952ZM489.66,624q46.76,0,76.43-27t29.68-83.35q0-55.14-28.49-83.33t-75.83-28.17q-54,0-82.43,29.38t-28.47,82.12q0,53.37,29.37,81.85T489.66,624Z" transform="translate(-51.42 -52.72)"/></svg>