<svg id="Layer_1" data-name="Layer 1" xmlns="http://www.w3.org/2000/svg" viewBox="0 0 900 900"><defs><style>.cls-1{fill:#ffff0f;}</style></defs><path class="cls-1" d="M500,116A384.12,384.12,0,0,1,649.45,853.85a384.12,384.12,0,0,1-298.9-707.7A381.46,381.46,0,0,1,500,116m0-66C251.47,50,50,251.47,50,500S251.47,950,500,950,950,748.53,950,500,748.53,50,500,50Z" transform="translate(-50 -50)"/><path class="cls-1" d="M230.44,567.58q270,67.83,540,0A9.31,9.31,0,0,1,782,576.77c-2.12,127.32-74.58,210.06-222.58,244.92A232.85,232.85,0,0,1,450,821c-150.87-37.41-229.9-117.65-231.13-244.28A9.31,9.31,0,0,1,230.44,567.58Z" transform="translate(-50 -50)"/><ellipse class="cls-1" cx="585.94" cy="313.5" rx="60.94" ry="131.5"/><ellipse class="cls-1" cx="314.06" cy="313.5" rx="60.94" ry="131.5"/></svg>