<?xml version="1.0" encoding="utf-8"?>
<!DOCTYPE svg PUBLIC "-//W3C//DTD SVG 20010904//EN" "http://www.w3.org/TR/2001/REC-SVG-20010904/DTD/svg10.dtd">
<svg version="1.0" xmlns="http://www.w3.org/2000/svg" width="144px" height="144px" viewBox="0 0 144 144" preserveAspectRatio="xMidYMid meet">
 <g fill="#030200">
  <path d="M0 72 l0 -72 72 0 72 0 0 72 0 72 -72 0 -72 0 0 -72z m87.5 60.8 c25.8 -7.4 43.1 -27.3 47.6 -54.7 1.6 -9.9 -2.1 -25.4 -8.8 -36.3 -12.9 -21.4 -38.3 -34.7 -60.1 -31.7 -25.9 3.6 -48.1 23.5 -54.7 48.9 -7.8 29.9 12.3 63.1 44.4 73.5 11.4 3.7 19.6 3.8 31.6 0.3z"/>
 </g>
 <g fill="#281706">
  <path d="M66 138.4 c-9.8 -1.6 -13 -2.6 -13 -4.1 0 -1.3 0.8 -1.5 5.8 -0.7 3.1 0.5 9.3 0.8 13.7 0.8 4.4 0 10.6 -0.3 13.8 -0.8 4.8 -0.7 5.7 -0.6 5.7 0.6 0 1 -1.6 2 -4.2 2.6 -5 1.3 -18.2 2.2 -21.8 1.6z"/>
  <path d="M47.3 133.5 c-4.3 -1.8 -4.2 -3.5 0.2 -3.5 3.1 0 3.5 0.3 3.5 2.5 0 1.4 -0.1 2.5 -0.2 2.5 -0.2 -0.1 -1.8 -0.7 -3.5 -1.5z"/>
  <path d="M94 132.5 c0 -2.2 0.4 -2.5 3.6 -2.5 4.4 0 4.2 1.8 -0.4 3.7 -3.1 1.3 -3.2 1.2 -3.2 -1.2z"/>
  <path d="M36.6 128 c-6.8 -4.4 -14.1 -11.4 -18.6 -18.3 -2.2 -3.2 -4 -6.3 -4 -6.8 0 -0.5 1.1 -0.9 2.5 -0.9 1.8 0 2.6 0.7 3.1 2.5 0.3 1.4 1 2.5 1.5 2.5 0.5 0 0.9 0.8 0.9 1.8 0 0.9 1 2.2 2.3 2.7 1.3 0.6 2.3 2.1 2.5 3.7 0.3 2.1 0.9 2.7 3 3 1.6 0.2 3.1 1.2 3.7 2.6 0.5 1.2 1.8 2.2 2.7 2.2 1 0 1.8 0.4 1.8 0.9 0 0.5 1.1 1.2 2.5 1.5 1.8 0.5 2.5 1.3 2.5 3.1 0 3.2 -0.6 3.1 -6.4 -0.5z"/>
  <path d="M102 128.5 c0 -1.8 0.7 -2.6 2.5 -3.1 1.4 -0.3 2.5 -1 2.5 -1.5 0 -0.5 0.8 -0.9 1.8 -0.9 0.9 0 2.2 -1 2.7 -2.2 0.6 -1.4 2.1 -2.4 3.7 -2.6 2.1 -0.3 2.7 -0.9 3 -3 0.2 -1.6 1.2 -3.1 2.6 -3.7 1.2 -0.5 2.2 -1.8 2.2 -2.7 0 -1 0.5 -1.8 1 -1.8 0.6 0 1 -0.7 1 -1.5 0 -0.8 0.7 -1.5 1.5 -1.5 0.9 0 1.5 -0.9 1.5 -2.5 0 -1.4 0.4 -2.5 0.9 -2.5 0.5 0 1.1 -1.2 1.4 -2.7 0.3 -1.6 1.5 -5.9 2.7 -9.8 3 -9.8 2.4 -22.1 -1.4 -32.5 -1.6 -4.1 -3 -8.7 -3.3 -10.3 -0.3 -1.5 -1.2 -2.7 -1.9 -2.7 -0.8 0 -1.4 -0.7 -1.4 -1.5 0 -0.8 -0.4 -1.5 -1 -1.5 -0.5 0 -1 -0.8 -1 -1.9 0 -1 -0.9 -2.1 -2 -2.4 -1.5 -0.4 -2 -1.4 -2 -4.1 0 -3.5 -0.1 -3.6 -3.6 -3.6 -2.7 0 -3.7 -0.5 -4.1 -2 -0.3 -1.1 -1.4 -2 -2.4 -2 -1.1 0 -1.9 -0.4 -1.9 -1 0 -0.5 -0.7 -1 -1.5 -1 -0.8 0 -1.5 -0.7 -1.5 -1.5 0 -0.8 -0.8 -1.5 -1.8 -1.5 -1 0 -4.5 -1.1 -7.8 -2.4 -3.2 -1.3 -7.6 -2.7 -9.7 -3.1 -2.8 -0.6 -3.7 -1.2 -3.7 -2.7 0 -1.8 0.4 -1.9 3.8 -1.3 7.5 1.3 17.2 5.4 24 9.9 27.8 18.5 37.7 54.5 23.1 84 -5.5 11.1 -13.7 20.3 -23.6 26.6 -5.7 3.6 -6.3 3.7 -6.3 0.5z"/>
  <path d="M11.6 98.2 c-5.1 -9.8 -7.2 -33.2 -3 -33.2 1.1 0 1.4 1.7 1.5 7.3 0 4.1 0.9 10.2 2 14.2 2.7 9.2 3.4 14.5 2 14.5 -0.6 0 -1.7 -1.3 -2.5 -2.8z"/>
  <path d="M7 62.9 c0 -2.2 3.2 -13.4 4.6 -16.1 0.8 -1.5 1.9 -2.8 2.5 -2.8 1.4 0 0.7 5.3 -1.8 13.8 -1.3 4.6 -2.2 6.2 -3.5 6.2 -1 0 -1.8 -0.5 -1.8 -1.1z"/>
  <path d="M15 40.1 c0 -1.8 8.7 -12.7 13.5 -16.9 9.1 -8 20.5 -13.7 31.8 -15.7 3.3 -0.6 3.7 -0.5 3.7 1.3 0 1.5 -0.9 2.1 -3.7 2.7 -2.1 0.4 -6.5 1.8 -9.7 3.1 -3.3 1.3 -6.8 2.4 -7.8 2.4 -1 0 -1.8 0.7 -1.8 1.5 0 0.8 -0.7 1.5 -1.5 1.5 -0.8 0 -1.5 0.5 -1.5 1 0 0.6 -0.8 1 -1.9 1 -1 0 -2.1 0.9 -2.4 2 -0.4 1.5 -1.4 2 -4.1 2 -3.5 0 -3.6 0.1 -3.6 3.6 0 2.7 -0.5 3.7 -2 4.1 -1.1 0.3 -2 1.4 -2 2.4 0 1.1 -0.4 1.9 -1 1.9 -0.5 0 -1 0.7 -1 1.5 0 0.9 -0.9 1.5 -2.5 1.5 -1.4 0 -2.5 -0.4 -2.5 -0.9z"/>
  <path d="M65 8.6 c0 -1.5 3 -2.6 7.5 -2.6 4.5 0 7.5 1.1 7.5 2.6 0 1.1 -1.8 1.4 -7.5 1.4 -5.7 0 -7.5 -0.3 -7.5 -1.4z"/>
 </g>
 <g fill="#502b08">
  <path d="M57 136.5 c-25.4 -6.2 -45.8 -28.3 -49.5 -53.7 -0.7 -4.4 -0.6 -4.8 1.4 -4.8 1.5 0 2.1 0.6 2.1 2.1 0 2.6 3.2 15.2 4.1 15.9 1.3 1 2.9 4.9 2.9 6.9 0 1.2 0.7 2.1 1.5 2.1 0.8 0 1.5 0.6 1.5 1.4 0 0.8 0.7 1.6 1.5 2 0.8 0.3 1.5 1.7 1.5 3.1 0 1.8 0.5 2.5 1.8 2.5 2.3 0 5.2 3 5.2 5.3 0 1.2 0.8 1.7 2.5 1.7 1.4 0 2.8 0.7 3.1 1.5 0.4 0.8 1.2 1.5 2 1.5 0.8 0 1.4 0.7 1.4 1.5 0 0.8 0.8 1.5 1.8 1.5 1 0 4.9 1.3 8.7 3 3.9 1.6 9.1 3.2 11.8 3.6 3.7 0.5 4.7 1.1 4.7 2.5 0 2.3 -2.1 2.3 -10 0.4z"/>
  <path d="M78 136.2 c0 -1.6 0.9 -2.1 4.8 -2.6 2.6 -0.4 7.8 -2 11.7 -3.6 3.8 -1.7 7.7 -3 8.7 -3 1 0 1.8 -0.7 1.8 -1.5 0 -0.8 0.6 -1.5 1.4 -1.5 0.8 0 1.6 -0.7 2 -1.5 0.3 -0.8 1.7 -1.5 3.1 -1.5 1.8 0 2.5 -0.5 2.5 -1.8 0 -2.3 3 -5.2 5.3 -5.2 1.2 0 1.7 -0.8 1.7 -2.5 0 -1.4 0.7 -2.8 1.5 -3.1 0.8 -0.4 1.5 -1.2 1.5 -2 0 -0.8 0.4 -1.4 0.8 -1.4 0.4 0 1.4 -1.6 2.1 -3.5 0.7 -1.9 1.8 -4 2.4 -4.7 1.3 -1.4 4.7 -13.4 4.7 -16.7 0 -1.5 0.6 -2.1 2.1 -2.1 2 0 2.1 0.4 1.5 4.6 -3.6 26.9 -27.6 50.9 -54.8 54.9 -4.4 0.7 -4.8 0.5 -4.8 -1.3z"/>
  <path d="M54 107.9 c-3 -0.4 -8.3 -1.1 -11.7 -1.5 l-6.3 -0.7 0 -4 0 -3.9 5.8 0.5 c3.1 0.3 8.9 1.3 12.7 2.1 9.1 2 25.9 1.9 36 -0.1 4.4 -0.8 10.4 -1.8 13.3 -2 l5.3 -0.5 -0.3 3.8 -0.3 3.8 -12 1.8 c-12.4 1.7 -32.9 2.1 -42.5 0.7z"/>
  <path d="M135 72.5 c0 -4.9 2.3 -6.4 3.3 -2.3 0.8 3.1 -0.2 6.8 -1.9 6.8 -1 0 -1.4 -1.3 -1.4 -4.5z"/>
  <path d="M7.4 62.4 c0.9 -6.5 4.9 -17.7 8.8 -24.1 4.2 -7.2 14.9 -17.9 22.1 -22.1 6.2 -3.7 17 -7.7 23.5 -8.8 3.7 -0.6 4.2 -0.4 4.2 1.2 0 1.6 -1.5 2.3 -8.5 3.9 -4.7 1 -8.5 2.2 -8.5 2.6 0 0.4 -2 1.5 -4.5 2.6 -2.5 1 -4.5 2.1 -4.5 2.6 0 0.4 -0.7 0.7 -1.5 0.7 -0.8 0 -1.5 0.5 -1.5 1 0 0.6 -1.1 1 -2.5 1 -1.7 0 -2.5 0.6 -2.5 1.7 0 2.3 -4.9 7.3 -7.2 7.3 -1.3 0 -1.8 0.8 -1.8 2.5 0 1.4 -0.4 2.5 -1 2.5 -0.5 0 -1 0.7 -1 1.5 0 0.8 -0.4 1.5 -0.8 1.5 -0.4 0 -1.4 1.6 -2.1 3.5 -0.7 1.9 -1.8 4 -2.4 4.7 -1.3 1.4 -4.7 13.4 -4.7 16.7 0 1.5 -0.6 2.1 -2.1 2.1 -2 0 -2.1 -0.4 -1.5 -4.6z"/>
  <path d="M132.5 57.5 c-1 -4.7 -2.2 -8.5 -2.6 -8.5 -0.4 0 -1.5 -2 -2.6 -4.5 -1 -2.5 -2.1 -4.5 -2.5 -4.5 -0.5 0 -0.8 -0.7 -0.8 -1.5 0 -0.8 -0.4 -1.5 -1 -1.5 -0.5 0 -1 -1.1 -1 -2.5 0 -1.7 -0.5 -2.5 -1.8 -2.5 -2.3 0 -7.2 -5 -7.2 -7.3 0 -1.1 -0.8 -1.7 -2.5 -1.7 -1.4 0 -2.5 -0.4 -2.5 -1 0 -0.5 -0.7 -1 -1.5 -1 -0.8 0 -1.5 -0.3 -1.5 -0.7 0 -0.5 -2 -1.6 -4.5 -2.6 -2.5 -1.1 -4.5 -2.2 -4.5 -2.6 0 -0.4 -3.8 -1.6 -8.5 -2.6 -7 -1.6 -8.5 -2.3 -8.5 -3.9 0 -1.6 0.5 -1.8 4.2 -1.2 6.5 1.1 17.3 5.1 23.5 8.8 7.2 4.2 17.9 14.9 22.1 22.1 3.7 6.2 7.7 17 8.8 23.5 0.6 3.7 0.4 4.2 -1.2 4.2 -1.6 0 -2.3 -1.5 -3.9 -8.5z"/>
  <path d="M68 8.6 c0 -1.7 3.7 -2.7 6.8 -1.9 4.1 1 2.6 3.3 -2.3 3.3 -3.2 0 -4.5 -0.4 -4.5 -1.4z"/>
 </g>
 <g fill="#723d08">
  <path d="M58.2 136.5 c-7.9 -1.7 -21.4 -8.3 -26.7 -12.9 l-4 -3.5 3.8 -0.1 c2.6 0 3.7 0.4 3.7 1.5 0 0.8 0.9 1.5 2 1.5 1.1 0 2 0.3 2 0.8 0 0.4 2.1 1.5 4.6 2.6 2.4 1 5 2.3 5.7 3 1.5 1.4 13.6 4.6 17.6 4.6 2.4 0 3.1 0.4 3.1 2 0 2.4 -2.4 2.5 -11.8 0.5z"/>
  <path d="M75 136 c0 -1.5 0.7 -2 2.6 -2 3.9 0 16.7 -3.2 18.1 -4.6 0.7 -0.6 3.3 -2 5.7 -3 2.5 -1.1 4.6 -2.2 4.6 -2.6 0 -0.5 0.9 -0.8 2 -0.8 1.1 0 2 -0.7 2 -1.5 0 -1.1 1.1 -1.5 3.8 -1.5 l3.7 0.1 -4 3.5 c-5.5 4.8 -18.9 11.2 -27.1 12.9 -9.5 2 -11.4 1.9 -11.4 -0.5z"/>
  <path d="M20.1 111.8 c-6.7 -9.1 -10.8 -19 -12.6 -30.5 -0.6 -3.9 -0.5 -4.3 1.4 -4.3 1.6 0 2.1 0.6 2.1 2.6 0 1.4 1.1 5.9 2.5 10 1.4 4.1 2.5 8.3 2.5 9.4 0 1.1 0.7 2 1.5 2 0.8 0 1.7 1.1 2.1 2.5 0.3 1.4 1 2.5 1.5 2.5 0.5 0 0.9 0.9 0.9 2 0 1.1 0.7 2 1.5 2 1 0 1.5 1.1 1.5 3.5 0 1.9 -0.2 3.5 -0.5 3.5 -0.2 0 -2.2 -2.4 -4.4 -5.2z"/>
  <path d="M120 113.8 c0 -2.7 0.4 -3.8 1.5 -3.8 0.8 0 1.5 -0.9 1.5 -2 0 -1.1 0.4 -2 0.9 -2 0.5 0 1.2 -1.1 1.5 -2.5 0.4 -1.4 1.3 -2.5 2.1 -2.5 0.8 0 1.5 -0.9 1.5 -2 0 -1.1 1.1 -5.3 2.5 -9.4 1.4 -4.1 2.5 -8.6 2.5 -10 0 -2 0.5 -2.6 2.1 -2.6 1.9 0 2 0.4 1.4 4.3 -1.8 11.8 -7.3 24.5 -14 32.2 l-3.4 4 -0.1 -3.7z"/>
  <path d="M58.4 110 c-5 -0.4 -10.1 -1.1 -11.3 -1.5 -1.2 -0.4 -2.1 -0.2 -2.1 0.4 0 0.6 -1.6 1.1 -3.5 1.1 -4.2 0 -5.5 -2 -5.5 -8.6 l0 -4.7 4.8 0.6 c2.6 0.3 7.6 1.3 11.2 2.1 3.6 0.8 8.4 1.5 10.8 1.6 2.3 0 4.2 0.5 4.2 1 0 0.6 2.5 1 5.5 1 3 0 5.5 -0.4 5.5 -0.9 0 -0.4 3.1 -1.1 6.8 -1.4 3.7 -0.4 9 -1.4 11.8 -2.2 2.7 -0.8 6.6 -1.5 8.7 -1.5 3.7 0 3.7 0 3.7 4.1 0 6.5 -1.3 8 -6.8 7.8 -2.6 0 -10.5 0.4 -17.7 1 -7.1 0.6 -13.9 1 -15 0.9 -1.1 0 -6.1 -0.4 -11.1 -0.8z m19.9 -4.7 c-2.9 -0.2 -7.8 -0.2 -11 0 -3.2 0.2 -0.8 0.3 5.2 0.3 6.1 0 8.7 -0.1 5.8 -0.3z"/>
  <path d="M7.6 63.3 c0.9 -6.7 4.7 -17.6 6.2 -18.1 1.8 -0.6 1.5 4.3 -0.8 11.6 -1.1 3.5 -2 7.5 -2 8.8 0 1.8 -0.5 2.4 -2.1 2.4 -1.8 0 -2 -0.4 -1.3 -4.7z"/>
  <path d="M133 60 c-0.7 -4.4 -1.7 -8 -2.2 -8 -0.4 0 -0.8 -1.6 -0.8 -3.6 0 -2.4 0.4 -3.4 1.3 -3.2 1.4 0.5 5.2 11.4 6.2 18.1 0.7 4.2 0.5 4.7 -1.2 4.7 -1.7 0 -2.2 -1.2 -3.3 -8z"/>
  <path d="M15 41.3 c0 -1.1 6 -10 8 -11.8 2 -1.8 2 -1.7 2 1.9 0 2.3 -0.5 3.9 -1.5 4.2 -0.8 0.4 -1.5 1.2 -1.5 2 0 0.8 -0.4 1.4 -1 1.4 -0.5 0 -1 0.7 -1 1.5 0 0.9 -0.9 1.5 -2.5 1.5 -1.4 0 -2.5 -0.3 -2.5 -0.7z"/>
  <path d="M125 39 c0 -2.3 -0.4 -3 -2 -3 -1.6 0 -2 -0.7 -2 -3.6 0 -3.1 0.2 -3.5 1.4 -2.4 1.6 1.3 7.6 10.3 7.6 11.3 0 0.4 -1.1 0.7 -2.5 0.7 -2.1 0 -2.5 -0.5 -2.5 -3z"/>
  <path d="M29.5 23 c0.3 -0.5 1.9 -1.9 3.5 -3 l3 -2.1 0 3 c0 2.9 -0.3 3.1 -3.6 3.1 -2 0 -3.3 -0.4 -2.9 -1z"/>
  <path d="M109 20.9 l0 -3 3 2.1 c4.4 3.1 4.5 4 0.6 4 -3.3 0 -3.6 -0.2 -3.6 -3.1z"/>
  <path d="M45.2 13.8 c0.3 -0.7 1.9 -1.8 3.6 -2.5 3.1 -1.3 3.2 -1.2 3.2 1.2 0 2.2 -0.4 2.5 -3.6 2.5 -2.3 0 -3.4 -0.4 -3.2 -1.2z"/>
  <path d="M93 12.5 c0 -2.4 0.1 -2.5 3.2 -1.2 4.6 1.9 4.8 3.7 0.4 3.7 -3.2 0 -3.6 -0.3 -3.6 -2.5z"/>
  <path d="M60 9.6 c0 -1.3 2.8 -2.6 5.8 -2.6 0.6 0 1.2 0.9 1.2 2 0 1.6 -0.7 2 -3.5 2 -2.3 0 -3.5 -0.5 -3.5 -1.4z"/>
  <path d="M78 9 c0 -2.1 1 -2.4 4.8 -1.4 3.6 1 2.7 3.4 -1.3 3.4 -2.8 0 -3.5 -0.4 -3.5 -2z"/>
 </g>
 <g fill="#bc0f06">
  <path d="M40.4 85.7 c-5.5 -2.9 -11.9 -6.7 -14.1 -8.5 -5.2 -4 -8.3 -10.3 -8.3 -16.5 0 -4.7 0 -4.7 3.4 -4.7 3.1 0 3.4 0.3 4 3.6 1 4.9 6.5 10.1 16.5 15.3 l8.5 4.4 1.7 -2.2 c1 -1.2 3 -5.3 4.6 -9.1 2.7 -6.6 3 -7 6.1 -7 3.1 0 3.2 0.2 3.2 4 0 3.9 -1.7 9.1 -6.7 20.3 -2.3 5.2 -2.9 5.7 -5.7 5.7 -1.7 -0.1 -7.5 -2.4 -13.2 -5.3z"/>
  <path d="M86.4 87.3 c-8.3 -19.2 -10 -25.9 -8.9 -34.8 0.4 -2.9 1.6 -6.7 2.6 -8.4 1.5 -2.5 2.5 -3.1 5.4 -3.1 3.2 0 3.5 0.2 3.5 3 0 1.6 -0.9 4.4 -2 6.2 -1.1 1.8 -2 4.3 -2 5.6 0 2.5 6.1 18.2 8.5 21.8 l1.5 2.4 8 -4 c4.4 -2.2 9.3 -4 11 -4 3 0 3.1 0.2 2.8 3.7 -0.3 3.7 -0.5 3.9 -11.3 9.5 -13.6 7.1 -16.8 7.4 -19.1 2.1z"/>
  <path d="M120 60.5 c0 -3.3 0.2 -3.5 3.5 -3.5 3.3 0 3.5 0.2 3.5 3.5 0 3.3 -0.2 3.5 -3.5 3.5 -3.3 0 -3.5 -0.2 -3.5 -3.5z"/>
  <path d="M57.8 49.5 c-1 -1.3 -1.8 -3.8 -1.8 -5.4 0 -2.9 0.3 -3.1 3.4 -3.1 4.2 0 6.6 2.9 6.6 7.7 0 3.1 -0.2 3.3 -3.2 3.3 -2.3 -0.1 -3.8 -0.8 -5 -2.5z"/>
 </g>
 <g fill="#91530a">
  <path d="M61.8 136.9 c-6.9 -1 -17 -4.9 -17.6 -6.8 -0.6 -1.7 4.3 -1.1 14.3 1.8 4 1.1 10 2 14 2 4 0 10 -0.9 14 -2 9.5 -2.7 14.5 -3.4 14.5 -1.9 0 1.8 -8.5 5.1 -16.9 6.6 -8.4 1.5 -13.8 1.6 -22.3 0.3z"/>
  <path d="M35.2 125.9 c-14.8 -9.8 -25.7 -28.2 -27.8 -46.6 -0.6 -6 -0.5 -6.3 1.5 -6.3 1.8 0 2.1 0.6 2.1 3.9 0 2.2 0.9 6.8 2 10.3 1.1 3.4 2 6.9 2 7.6 0 0.7 0.7 2 1.5 2.8 0.8 0.9 1.5 2.6 1.5 4 0 1.5 0.6 2.4 1.5 2.4 0.8 0 1.5 0.7 1.5 1.5 0 0.8 0.5 1.5 1 1.5 0.6 0 1 0.9 1 2 0 1.1 0.5 2 1.2 2 1.6 0 9.8 8.1 9.8 9.7 0 0.7 0.9 1.3 2 1.3 1.1 0 2 0.4 2 0.9 0 0.5 1.1 1.2 2.5 1.5 1.8 0.5 2.5 1.3 2.5 3.1 0 1.4 -0.4 2.5 -0.9 2.5 -0.5 0 -3.6 -1.8 -6.9 -4.1z"/>
  <path d="M102 127.5 c0 -1.8 0.7 -2.6 2.5 -3.1 1.4 -0.3 2.5 -1 2.5 -1.5 0 -0.5 0.9 -0.9 2 -0.9 1.1 0 2 -0.6 2 -1.3 0 -1.6 8.2 -9.7 9.8 -9.7 0.7 0 1.2 -0.9 1.2 -2 0 -1.1 0.5 -2 1 -2 0.6 0 1 -0.7 1 -1.5 0 -0.8 0.7 -1.5 1.5 -1.5 0.9 0 1.5 -0.9 1.5 -2.4 0 -1.4 0.6 -3.1 1.3 -3.8 0.8 -0.7 1.6 -2.5 1.9 -3.8 0.3 -1.4 1.3 -5.2 2.2 -8.5 0.9 -3.2 1.6 -7.4 1.6 -9.2 0 -2.7 0.4 -3.3 2.1 -3.3 2 0 2.1 0.3 1.5 6.3 -1.5 13.2 -7.9 27.3 -17.2 37.6 -4.2 4.6 -15.5 13.1 -17.5 13.1 -0.5 0 -0.9 -1.1 -0.9 -2.5z"/>
  <path d="M61 126.6 c-14.1 -3.8 -26 -15.5 -26 -25.5 0 -2.6 0.4 -3.1 3.5 -3.7 2.1 -0.4 6.1 0 10 1 3.5 0.9 7.6 1.6 9 1.6 1.8 0 2.5 0.5 2.5 2 0 1.3 -0.7 2 -1.9 2 -2.3 0 -14.8 -2.6 -17.3 -3.5 -2.3 -0.9 -2.5 2.3 -0.3 5.1 1.3 1.7 1.4 1.7 1.5 0.2 0 -1 0.1 -1.8 0.3 -1.8 0.1 0 3.8 0.7 8.2 1.6 10.8 2 33.6 2 43.9 -0.1 6.3 -1.3 8.1 -1.4 8.7 -0.4 0.5 0.9 1.1 0.5 2 -1.4 0.7 -1.5 1 -3 0.7 -3.3 -0.3 -0.3 -3 0.2 -5.9 1 -3 0.8 -7.5 1.8 -10.1 2.2 -4.3 0.6 -4.8 0.4 -4.8 -1.3 0 -1.5 1.2 -2.1 6.8 -3.2 12.3 -2.4 14.2 -2.5 14.2 -0.7 0 0.9 0.7 1.6 1.5 1.6 2.6 0 1.8 5.9 -1.6 11.2 -8.6 13.3 -28 20 -44.9 15.4z m22 -9.4 c10.2 -4.5 9.7 -4.8 -10.4 -4.7 -20.5 0 -21.2 0.4 -10 5.1 6.9 2.9 13.2 2.8 20.4 -0.4z"/>
  <path d="M62.8 104.3 c-1 -0.2 -1.8 -1.1 -1.8 -1.9 0 -1.1 2.2 -1.4 11.5 -1.4 9.1 0 11.5 0.3 11.5 1.4 0 0.7 -1 1.6 -2.2 2 -2.6 0.7 -16.4 0.6 -19 -0.1z"/>
  <path d="M7.4 66.3 c1.1 -9 2.7 -14.3 4.3 -14.3 1.3 0 1.4 0.9 0.9 4.8 -0.4 2.6 -1 7.1 -1.3 10 -0.5 4.4 -0.9 5.2 -2.6 5.2 -1.8 0 -1.9 -0.4 -1.3 -5.7z"/>
  <path d="M134 68.8 c0 -1.3 -0.3 -4.7 -0.6 -7.5 -0.6 -4.4 -0.4 -5.3 0.9 -5.3 1.6 0 2.2 1.8 3.3 9.8 0.6 4.9 0.5 5.2 -1.5 5.2 -1.5 0 -2.1 -0.6 -2.1 -2.2z"/>
  <path d="M131 52.5 c0 -1.4 -0.4 -2.5 -0.8 -2.5 -1.1 0 -4.2 -6.6 -4.2 -9 0 -1.1 -0.7 -2 -1.5 -2 -0.8 0 -1.5 -0.9 -1.5 -2 0 -1.1 -0.7 -2 -1.5 -2 -1.1 0 -1.5 -1.1 -1.5 -3.7 l0.1 -3.8 3.4 4 c3.8 4.3 11.5 19 11.5 21.8 0 1 -0.8 1.7 -2 1.7 -1.5 0 -2 -0.7 -2 -2.5z"/>
  <path d="M12.1 47.3 c1.6 -4.3 5.2 -10.3 6.1 -10.3 1.4 0 0.9 5.8 -0.9 9.5 -1.2 2.5 -2.3 3.5 -4 3.5 -2 0 -2.2 -0.3 -1.2 -2.7z"/>
  <path d="M22 31 c3.1 -4.4 4 -4.5 4 -0.6 0 3.3 -0.2 3.6 -3.1 3.6 l-3 0 2.1 -3z"/>
  <path d="M31 21.9 c5.9 -5.2 19 -11.6 27.6 -13.4 8.9 -1.9 9.4 -1.9 9.4 0.5 0 1.4 -0.7 2 -2.1 2 -2.9 0 -15.3 3.3 -15.7 4.2 -0.2 0.5 -1.7 0.8 -3.3 0.8 -1.9 0 -2.9 0.5 -2.9 1.5 0 0.8 -1.1 1.7 -2.5 2.1 -1.4 0.3 -2.5 1 -2.5 1.5 0 0.5 -0.8 0.9 -1.9 0.9 -1 0 -2.1 0.9 -2.4 2 -0.4 1.6 -1.3 2 -4.4 2 l-3.8 -0.1 4.5 -4z"/>
  <path d="M110 23.5 c0 -0.8 -0.9 -1.5 -2 -1.5 -1.1 0 -2 -0.4 -2 -0.9 0 -0.5 -1.1 -1.2 -2.5 -1.5 -1.4 -0.4 -2.5 -1.3 -2.5 -2.1 0 -1 -1 -1.5 -2.9 -1.5 -1.6 0 -3.1 -0.3 -3.3 -0.8 -0.4 -0.9 -12.8 -4.2 -15.7 -4.2 -1.4 0 -2.1 -0.6 -2.1 -2 0 -2.4 0.5 -2.4 9.4 -0.5 8.2 1.7 21.6 8.1 27.1 12.9 l4 3.5 -3.7 0.1 c-2.7 0 -3.8 -0.4 -3.8 -1.5z"/>
 </g>
 <g fill="#c7310c">
  <path d="M41.5 86.8 c-4.4 -2.2 -8.1 -4.4 -8.3 -4.9 -0.2 -0.5 -1 -0.9 -1.8 -0.9 -0.8 0 -1.4 -0.4 -1.4 -0.9 0 -0.5 -0.9 -1.1 -2 -1.4 -1.4 -0.3 -2 -1.4 -2 -3.1 0 -2.1 -0.5 -2.6 -2.5 -2.6 -3.5 0 -5.5 -4.4 -5.5 -12 0 -9.5 3.2 -14 9.9 -14 2.8 0 3.1 0.3 3.1 3.1 0 2.2 -0.9 4 -3 5.9 -3.3 3.1 -3.8 5.6 -1.5 8.6 0.8 1 1.5 2.9 1.5 4.2 0 1.7 0.6 2.2 2.5 2.2 1.4 0 2.8 0.7 3.1 1.5 0.4 0.8 1.2 1.5 1.9 1.5 0.7 0 1.5 0.3 1.7 0.8 0.2 0.4 3.4 2.2 7.2 4 6.8 3.3 6.9 3.3 8.7 1.3 1.1 -1.1 1.9 -2.7 1.9 -3.5 0 -0.8 0.9 -3.6 2 -6.2 3.5 -7.9 4.2 -13.2 2.9 -18.6 -0.9 -3.5 -1.8 -4.8 -3.1 -4.8 -1.4 0 -1.8 -0.8 -1.8 -3.5 0 -3.3 0.2 -3.5 3.5 -3.5 2.8 0 3.5 0.4 3.5 2 0 1.3 0.7 2 2 2 2.8 0 4.4 6.7 3.7 15.5 -0.5 7 -5.1 21.5 -6.8 21.5 -0.5 0 -0.9 0.9 -0.9 2.1 0 2.3 -1.8 6 -3.4 7.1 -2.4 1.6 -7.5 0.5 -15.1 -3.4z m18.5 -13.2 c4.1 -10.4 3.8 -12 -0.5 -2.2 -3.8 8.8 -5.9 11.6 -8.7 11.6 -3.3 0 -20 -9.2 -23.9 -13.1 -2 -2 -4.1 -5.4 -4.7 -7.5 -0.5 -2.2 -1 -3 -1.1 -2 -0.2 3.5 4 10.5 8.2 13.8 2.2 1.8 8.6 5.6 14.1 8.5 l10.1 5.2 1.7 -3.4 c1 -1.8 3.1 -6.7 4.8 -10.9z"/>
  <path d="M89 89.5 c0 -0.8 -0.6 -1.5 -1.3 -1.5 -1.6 0 -3.7 -4.1 -3.7 -7 0 -1.1 -0.4 -2 -0.9 -2 -1.1 0 -3.1 -5.5 -3.1 -8.6 0 -1.2 -0.5 -2.4 -1.2 -2.6 -1.6 -0.6 -2.3 -15.7 -0.8 -20.2 1 -3.1 1.6 -3.6 4.1 -3.6 2.9 0 2.9 0 1.3 2.5 -0.9 1.4 -2 4.4 -2.4 6.5 -1.2 6.8 0.3 12.4 8.4 31.3 l1.6 3.7 9.8 -4.9 c5.3 -2.7 10.6 -5.7 11.7 -6.6 1.1 -0.8 -1.7 0.2 -6.2 2.5 -4.6 2.2 -9.6 4 -11.3 4 -3.6 0 -4.8 -1.7 -9.5 -13.3 -4 -9.8 -4.5 -16.8 -1.8 -22 0.9 -1.8 1.6 -4.4 1.4 -5.9 l-0.3 -2.8 7.1 0 7.1 0 0 3.5 0 3.5 -6.4 0 c-6.4 0 -6.4 0 -7.1 3.3 -1 4.3 -0.9 16.8 0.2 17.6 1.1 0.8 3.3 5.8 3.3 7.7 0 0.8 0.5 2 1 2.7 0.6 0.7 1.6 2 2.3 3 1.2 1.8 1.6 1.7 8.3 -1.5 3.8 -1.8 7.1 -3.6 7.2 -4 0.2 -0.5 0.9 -0.8 1.5 -0.8 0.7 0 1.8 -0.9 2.5 -2 0.7 -1.1 2.1 -2 3.2 -2 1.3 0 2 -0.7 2 -1.8 0 -1 0.4 -2.2 0.9 -2.7 0.4 -0.6 1.1 -2.3 1.5 -3.8 0.6 -2.3 0.1 -3.3 -2.4 -5.7 -2.1 -1.9 -3 -3.7 -3 -5.9 0 -2.8 0.3 -3.1 3.1 -3.1 6.6 0 9.9 4.5 9.9 13.5 0 7 -2.2 12.5 -4.9 12.5 -1.3 0 -2.1 0.8 -2.3 2.3 -0.2 1.2 -1.3 2.6 -2.5 3.2 -1.3 0.5 -2.3 1.3 -2.3 1.7 0 0.5 -0.6 0.8 -1.4 0.8 -0.8 0 -1.6 0.4 -1.8 0.9 -0.1 0.5 -4 2.7 -8.5 5 -8.6 4.3 -14.3 5.3 -14.3 2.6z"/>
  <path d="M44 43.6 c0 -3.7 1.2 -4.6 6.1 -4.6 2.6 0 2.9 0.3 2.9 3.4 0 3.7 -1.2 4.6 -6.1 4.6 -2.6 0 -2.9 -0.3 -2.9 -3.4z"/>
 </g>
 <g fill="#db1c10">
  <path d="M37.3 81.7 c-15.3 -8.1 -18.3 -11.8 -18.3 -22.7 0 -5.6 0.3 -6.5 3.1 -9.1 2.3 -2.2 4.1 -2.9 7 -2.9 3.7 0 3.9 0.1 3.9 3.3 -0.1 2.5 -0.8 3.6 -3.3 5.2 -3.9 2.5 -4.3 4.1 -1.7 8.2 2.5 4.1 20.4 13.2 22.9 11.6 0.9 -0.6 3.3 -4.9 5.5 -9.5 4.3 -9.4 4.3 -11.7 0.2 -16.5 -2.1 -2.4 -2.7 -2.6 -5.2 -1.8 -2.1 0.8 -3.3 2.2 -4.5 5.5 -1.4 3.9 -2.1 4.5 -4.8 4.8 -4.8 0.5 -8.1 -2.1 -8.1 -6.3 0 -3.1 0.3 -3.5 2.5 -3.5 1.7 0 2.9 -0.9 4 -3 2.1 -4.1 6.3 -6 13.3 -6 5.6 0 6.2 0.2 9 3.4 6.6 7.6 6.7 16 0.4 30.5 -6.3 14.4 -9.3 16.3 -3.6 2.3 2.5 -6.2 4.4 -11.7 4.2 -12.3 -0.2 -0.6 -1.8 2.6 -3.6 6.9 -3.8 9.3 -6.5 13.2 -9.3 13.2 -2.3 0 -14.7 -6.1 -20.5 -10.1 -5 -3.4 -7.3 -6.7 -8.4 -12.2 l-0.8 -4.2 -0.1 3.8 c-0.1 2.1 0.6 5.1 1.4 6.6 2.2 4.3 9.7 10.4 18.3 15 4.2 2.2 7 4 6.2 4 -0.8 0 -5.2 -1.9 -9.7 -4.2z m25.9 -33.4 c-0.6 -1 -2.1 -2.7 -3.3 -3.8 -1.9 -1.6 -1.8 -1.4 0.4 1.3 1.5 1.9 2.7 3.8 2.7 4.4 0 0.6 0.3 0.9 0.6 0.6 0.3 -0.4 0.1 -1.5 -0.4 -2.5z"/>
  <path d="M87.5 83.6 c-0.8 -1.2 -3.1 -6.2 -5 -10.9 -3 -7.4 -3.5 -9.8 -3.5 -16.8 0 -9 2.4 -15.2 6.4 -16.3 7 -1.9 17.6 0.7 17.6 4.2 0 2.6 1.8 3.2 10 3.2 6.2 0 7.1 0.3 10 3 3.2 3 3.2 3 2.8 11.3 -0.6 11.2 -2 13.1 -14.7 19.6 -5.5 2.8 -11 5.1 -12.3 5.1 -1.6 -0.1 0 -1.3 5.2 -4 4.1 -2.2 8.9 -5.1 10.5 -6.4 1.9 -1.6 -0.5 -0.7 -6.5 2.4 -10.8 5.6 -15.1 6.3 -17.5 2.6 -0.8 -1.2 -3.1 -6.2 -5 -10.9 -4.2 -10.4 -4.6 -17.3 -1.4 -22.7 1.8 -2.8 1.8 -3.2 0.4 -2 -2.5 2 -4.5 7.2 -4.5 11.4 0 4.2 3.1 14.4 7 23.1 3 6.7 3.2 8.3 0.5 4.1z m18.5 -10.6 c12.1 -6.1 16 -13.3 9.5 -17.6 -2.3 -1.5 -2.7 -1.4 -5.9 0.6 -2.3 1.3 -4.8 2 -6.8 1.8 -3 -0.3 -3.4 -0.7 -4.2 -4.5 -0.9 -4 -3.5 -6.3 -7.1 -6.3 -1.8 0 -5.5 4.8 -5.5 7.2 0 2.1 6.1 16.7 8.6 20.6 0.8 1.2 1.9 2.2 2.4 2.2 0.6 0 4.6 -1.8 9 -4z m17.9 -12.9 c0.1 -4.8 -0.5 -3.5 -1.2 2.4 -0.4 3.2 -0.3 4.3 0.3 3 0.5 -1.1 0.9 -3.5 0.9 -5.4z"/>
 </g>
 <g fill="#a8650c">
  <path d="M56.5 135.4 c-7.6 -1.9 -19.3 -7.6 -24.2 -11.9 l-3.8 -3.4 3.8 -0.1 c2.4 0 4 0.5 4.3 1.5 0.4 0.8 1.2 1.5 2 1.5 0.8 0 1.4 0.7 1.4 1.5 0 0.8 0.9 1.5 2.1 1.5 2 0 5.9 1.6 6.9 2.9 0.7 0.9 13.3 4.1 15.9 4.1 1.4 0 2.1 0.6 2.1 2 0 2.4 -1.9 2.5 -10.5 0.4z"/>
  <path d="M78 135.1 c0 -1.5 0.6 -2.1 2.1 -2.1 2.6 0 15.2 -3.2 15.9 -4.1 1 -1.3 4.9 -2.9 6.9 -2.9 1.2 0 2.1 -0.7 2.1 -1.5 0 -0.8 0.6 -1.5 1.4 -1.5 0.8 0 1.6 -0.7 2 -1.5 0.3 -1 1.9 -1.5 4.2 -1.5 3.7 0 3.7 0 1.8 2.1 -5 5.5 -21.2 12.9 -31.6 14.4 -4.4 0.7 -4.8 0.6 -4.8 -1.4z"/>
  <path d="M58.8 126.4 c-2.7 -0.8 -4.8 -1.8 -4.8 -2.3 0 -0.5 -1.3 -1.1 -3 -1.4 -2.1 -0.5 -3 -1.2 -3 -2.6 0 -1.4 -0.8 -2.1 -2.7 -2.3 -2.2 -0.2 -2.9 -0.9 -3.1 -3 -0.2 -2 -0.9 -2.8 -2.3 -2.8 -1.4 0 -1.9 -0.7 -1.9 -3 0 -2 -0.5 -3 -1.5 -3 -1.1 0 -1.5 -1.2 -1.5 -4.6 l0 -4.6 5.8 0.5 c3.1 0.2 9.2 1 13.5 1.8 6.4 1.1 7.7 1.7 7.7 3.2 0 1.7 -0.5 1.8 -5.2 1.2 -2.9 -0.4 -7.9 -1.3 -11.1 -2.1 -3.2 -0.8 -6.2 -1.2 -6.7 -0.9 -1.6 1 1.1 6.5 6 11.8 5.4 6 13.2 10.2 21.7 11.9 12.7 2.6 28.9 -4.5 36 -15.7 1.5 -2.5 3.1 -4.5 3.6 -4.5 0.4 0 0.7 1.6 0.7 3.5 0 1.9 -0.4 3.5 -1 3.5 -0.5 0 -1 0.7 -1 1.5 0 0.8 -0.8 1.5 -1.8 1.5 -2.3 0 -4.2 1.9 -4.2 4.3 0 1 -0.9 2.1 -2 2.4 -1.1 0.3 -2 0.9 -2 1.3 0 1 -4.7 3 -7 3 -1.1 0 -2 0.4 -2 0.9 0 1.5 -11.3 2.6 -11.8 1.2 -0.5 -1.4 -3.2 -1.5 -3.2 -0.1 0 1.4 -6.7 1.1 -12.2 -0.6z"/>
  <path d="M60.6 121.1 c-2.7 -1.1 -6.5 -3.2 -8.5 -4.6 -3.9 -2.7 -8.6 -8.3 -7.8 -9.2 0.3 -0.3 3.6 0 7.4 0.6 15.7 2.4 28.1 2.3 44.6 -0.5 5.2 -0.9 4.9 1.2 -0.8 6.5 -6.4 5.9 -12.4 8.3 -22 8.7 -6.3 0.3 -9.1 0 -12.9 -1.5z"/>
  <path d="M19.9 110.8 c-1.7 -2.4 -4.4 -7 -6 -10.3 -2.9 -6 -2.9 -6 -0.8 -6.3 2.6 -0.4 3.9 1.3 3.9 5.1 0 1.7 0.5 2.7 1.5 2.7 1 0 1.5 1 1.5 3 0 2.3 0.4 3 2 3 1.6 0 2 0.7 2 3.5 0 1.9 -0.2 3.5 -0.5 3.5 -0.3 0 -1.9 -1.9 -3.6 -4.2z"/>
  <path d="M121 111.7 c0 -3 0.4 -3.7 2 -3.7 1.4 0 2 -0.7 2 -2.4 0 -3.5 1 -5.6 2.6 -5.6 0.9 0 1.4 -1.1 1.4 -3 0 -2.5 0.4 -3 2.5 -3 l2.5 0 -1.5 3.8 c-2.1 5 -7.6 14 -9.7 15.9 -1.7 1.5 -1.8 1.4 -1.8 -2z"/>
  <path d="M83 102.2 c0 -1.4 1.5 -2 7.3 -3.1 13.3 -2.4 14.7 -2.4 14.7 -0.8 0 1.5 -4.3 3 -13.9 4.7 -7.3 1.4 -8.1 1.3 -8.1 -0.8z"/>
  <path d="M9.1 87.6 c-1.5 -6.2 -1.4 -7.6 0.8 -7.6 1.8 0 3.1 3.9 3.1 9.8 0 4 -2.7 2.4 -3.9 -2.2z"/>
  <path d="M132 89.8 c0 -5.9 1.3 -9.8 3.1 -9.8 2.2 0 2.2 0.3 0.8 7 -1.1 5.1 -3.9 7.2 -3.9 2.8z"/>
  <path d="M7.4 75.6 c-0.8 -4.4 0.4 -9.6 2.2 -9.6 1.1 0 1.4 1.6 1.4 6.5 0 5 -0.3 6.5 -1.5 6.5 -0.8 0 -1.7 -1.4 -2.1 -3.4z"/>
  <path d="M134 72 c0 -5.5 0.3 -7 1.5 -7 1.8 0 3 5.8 2.1 10.5 -0.4 2.1 -1.3 3.5 -2.1 3.5 -1.2 0 -1.5 -1.5 -1.5 -7z"/>
  <path d="M8 62.8 c0 -3 1.3 -5.8 2.6 -5.8 0.9 0 1.4 1.2 1.4 3.5 0 2.8 -0.4 3.5 -2 3.5 -1.1 0 -2 -0.6 -2 -1.2z"/>
  <path d="M132.1 58.8 c-2.2 -8.6 -2.6 -13.1 -1 -12.6 1.6 0.5 4.4 7.5 5.4 13.6 0.6 3.7 0.4 4.2 -1.2 4.2 -1.4 0 -2.2 -1.3 -3.2 -5.2z"/>
  <path d="M10 54.5 c0 -2.5 2.8 -8.5 3.9 -8.5 1.2 0 1.4 4.2 0.5 7.8 -0.7 2.5 -4.4 3.1 -4.4 0.7z"/>
  <path d="M16 40.1 c0 -1.8 9.2 -13.1 13.8 -16.9 10 -8.4 22.8 -14.1 35 -15.7 4.8 -0.6 5.2 -0.5 5.2 1.4 0 1.4 -0.6 2.1 -2 2.1 -3.7 0 -15 2.4 -15 3.2 0 0.5 -0.9 0.8 -2.1 0.8 -1.1 0 -2.7 0.7 -3.5 1.5 -0.9 0.8 -2.6 1.5 -4 1.5 -1.5 0 -2.4 0.6 -2.4 1.5 0 0.8 -0.7 1.5 -1.5 1.5 -0.8 0 -1.5 0.5 -1.5 1 0 0.6 -1.1 1 -2.4 1 -1.8 0 -2.5 0.6 -2.8 2.3 -0.2 1.4 -1.1 2.3 -2.5 2.5 -1.4 0.2 -2.3 1.1 -2.5 2.5 -0.2 1.4 -1.1 2.3 -2.5 2.5 -1.7 0.3 -2.3 1 -2.3 2.8 0 1.3 -0.4 2.4 -1 2.4 -0.5 0 -1 0.7 -1 1.5 0 0.9 -0.9 1.5 -2.5 1.5 -1.4 0 -2.5 -0.4 -2.5 -0.9z"/>
  <path d="M124 39.5 c0 -0.8 -0.4 -1.5 -1 -1.5 -0.5 0 -1 -0.8 -1 -1.8 0 -0.9 -1 -2.2 -2.2 -2.7 -1.4 -0.6 -2.4 -2.1 -2.6 -3.7 -0.3 -2.2 -0.8 -2.8 -2.9 -2.8 -1.6 0 -2.7 -0.7 -3 -2 -0.3 -1.1 -1.4 -2 -2.4 -2 -1.1 0 -1.9 -0.4 -1.9 -1 0 -0.5 -0.7 -1 -1.5 -1 -0.8 0 -1.5 -0.7 -1.5 -1.5 0 -0.9 -0.9 -1.5 -2.4 -1.5 -1.4 0 -3.1 -0.7 -4 -1.5 -0.8 -0.8 -2.4 -1.5 -3.5 -1.5 -1.2 0 -2.1 -0.3 -2.1 -0.8 0 -0.8 -11.3 -3.2 -15 -3.2 -1.4 0 -2 -0.7 -2 -2.1 0 -1.9 0.4 -2 5.3 -1.4 12.2 1.6 25.9 7.8 35.6 16.1 4.4 3.8 13.1 14.8 13.1 16.5 0 0.5 -1.1 0.9 -2.5 0.9 -1.6 0 -2.5 -0.6 -2.5 -1.5z"/>
 </g>
 <g fill="#ca5f0c">
  <path d="M58 135.4 c-22.9 -4.9 -43.1 -24.7 -48.5 -47.6 -2 -8.6 -2 -11.8 0.3 -11.8 1.3 0 2 1.3 2.8 5.8 0.6 3.2 2.7 9.2 4.7 13.5 7.9 17 20.3 28.2 37.7 34.1 10.7 3.5 17.9 4.1 27.5 2.1 19.3 -3.9 35.1 -15.9 43.8 -33.3 2.5 -5.1 5.2 -12 5.9 -15.2 0.9 -4.7 1.6 -6 3 -6 2.2 0 2.3 2.3 0.2 11 -4.1 17.4 -17.2 33.9 -33.4 41.9 -13.9 6.8 -29.1 8.7 -44 5.5z"/>
  <path d="M39.5 86.2 c-11 -5.7 -15.5 -8.9 -15.5 -10.8 0 -0.8 -0.7 -1.4 -1.5 -1.4 -0.8 0 -1.5 -0.7 -1.5 -1.5 0 -0.8 -0.4 -1.5 -1 -1.5 -0.5 0 -1 -1.3 -1 -3 0 -1.6 -0.4 -3 -1 -3 -0.5 0 -1 -1.8 -1 -4 0 -3.3 0.3 -4 2 -4 1.6 0 2 0.7 2 3.5 0 4.9 2.1 8.5 7.6 13.3 5.6 5 24.2 14.8 25.5 13.5 1.4 -1.4 9.9 -22.5 9.9 -24.5 0 -2.7 1.1 -4.8 2.6 -4.8 3.1 0 1.4 8.2 -4.8 23.3 l-4 9.7 -4.7 0 c-3.5 -0.1 -6.7 -1.2 -13.6 -4.8z"/>
  <path d="M84.6 84.9 c-1.4 -3.3 -2.6 -6.9 -2.6 -8 0 -1 -0.4 -1.9 -0.9 -1.9 -1 0 -4.1 -10.6 -4.1 -14.3 0 -5 2.6 -2.9 4.4 3.5 2 7.1 8.4 22.6 9.7 23.4 0.5 0.3 5.4 -1.8 10.9 -4.6 10.7 -5.6 19.6 -12.7 20.6 -16.6 1 -3.8 3.4 -3 3.4 1.1 0 1.9 -0.4 3.5 -1 3.5 -0.5 0 -1 0.7 -1 1.5 0 0.8 -0.9 1.5 -2 1.5 -1.4 0 -2 0.7 -2 2.1 0 1.2 -0.8 2.3 -2 2.6 -1.1 0.3 -2 0.9 -2 1.3 0 0.5 -4.5 3.1 -9.9 5.9 -7.6 3.9 -11 5.1 -14.4 5.1 l-4.4 0 -2.7 -6.1z"/>
  <path d="M103.8 77.5 c3.4 -1.9 6.6 -3.5 7.1 -3.5 0.5 0 1.1 -0.7 1.5 -1.5 0.3 -0.8 1.5 -1.5 2.6 -1.5 1.3 0 2 -0.7 2 -2 0 -1.1 0.5 -2 1 -2 0.6 0 1 -0.7 1 -1.5 0 -0.8 0.7 -1.5 1.6 -1.5 0.9 0 1.2 0.5 0.8 1.3 -3 5.1 -5.5 7.2 -13.5 11.2 -10.5 5.3 -13 5.9 -4.1 1z"/>
  <path d="M57.6 69.8 c1.9 -4.6 3.4 -9.1 3.4 -10 0 -1 0.5 -1.8 1 -1.8 0.6 0 1 0.7 1 1.5 0 1.6 -7.6 18.5 -8.3 18.5 -0.2 0 1.1 -3.7 2.9 -8.2z"/>
  <path d="M25.2 67 c-1.3 -2.1 -2.1 -4.9 -2 -7 l0.1 -3.5 0.4 3.8 c0.2 2 0.8 3.7 1.4 3.7 0.5 0 0.9 0.6 0.9 1.4 0 0.8 0.5 1.6 1.2 1.8 0.6 0.2 0.9 1.1 0.6 1.9 -0.3 0.9 -1.2 0.3 -2.6 -2.1z"/>
  <path d="M8 64.5 c0 -4.1 2.3 -11.5 3.6 -11.5 1.6 0 1.7 1.5 0.8 8.4 -0.5 3.6 -1.1 4.6 -2.5 4.6 -1.1 0 -1.9 -0.7 -1.9 -1.5z"/>
  <path d="M132.6 61.4 c-0.9 -6.9 -0.8 -8.4 0.8 -8.4 0.9 0 1.8 1.9 2.5 5 1.5 6.9 1.4 8 -0.8 8 -1.4 0 -2 -1 -2.5 -4.6z"/>
  <path d="M12.3 47.8 c1.9 -4.6 3.7 -4.8 3.7 -0.4 0 3.2 -0.3 3.6 -2.5 3.6 -2.4 0 -2.5 -0.1 -1.2 -3.2z"/>
 </g>
 <g fill="#f7291d">
  <path d="M92.7 79.2 c-2.2 -2.5 -9.7 -19.5 -10.4 -23.7 -0.5 -3 -0.3 -3.5 1.3 -3.5 2.3 0.1 8 7.3 9 11.5 0.8 3.5 4 10.1 5.2 10.9 0.4 0.2 3 -1.3 5.7 -3.5 3.3 -2.5 6 -3.9 8 -3.9 3.7 0 5 -0.9 5.9 -3.7 0.9 -2.8 4.6 -3.2 4.6 -0.5 0 4.3 -5 9.2 -14 13.7 -9.8 4.9 -12.8 5.4 -15.3 2.7z"/>
  <path d="M38.3 75.5 c-8.8 -4.1 -14.3 -8.2 -14.3 -10.5 0 -1.2 4.7 -1.4 5.4 -0.1 0.3 0.5 2.5 1.2 4.9 1.5 2.3 0.4 6.3 2 8.7 3.6 2.5 1.7 5.2 3 6.1 3 1.8 0 4.2 -5.1 5.3 -11.2 0.4 -2.2 1.5 -4.2 2.6 -4.8 1.5 -0.8 2 -2.1 2 -5 0 -4.3 1.3 -5.2 3 -2.1 2 3.9 1.1 10.7 -2.5 18.8 -6.1 13.2 -7 13.5 -21.2 6.8z"/>
  <path d="M111.7 78.1 c1.2 -1.1 2.6 -2.1 3 -2.1 1.6 -0.1 7.8 -8.3 8.9 -11.8 l1.2 -3.7 0.1 3.7 c0.1 2 -0.5 4.3 -1.1 5 -0.7 0.8 -1.8 2.3 -2.4 3.3 -0.6 1.1 -3.5 3.3 -6.5 4.9 -4.5 2.4 -5 2.5 -3.2 0.7z"/>
  <path d="M60.1 76 c-0.1 -0.3 0.8 -2.9 1.9 -5.7 2.6 -6.9 3.4 -14.1 2.2 -18.7 -0.8 -2.9 -0.8 -3.6 0.4 -3.6 1.1 0 1.4 1.8 1.3 8.3 0 6.8 -0.5 9.2 -2.9 14.2 -1.6 3.3 -2.9 5.8 -2.9 5.5z"/>
  <path d="M24.8 72.9 c-1.6 -1.1 -2.8 -2.8 -2.8 -3.7 0 -1.2 0.9 -0.7 3 1.6 4.2 4.7 4.2 5.4 -0.2 2.1z"/>
  <path d="M79.3 56 c0 -2.5 0.2 -3.5 0.4 -2.2 0.2 1.2 0.2 3.2 0 4.5 -0.2 1.2 -0.4 0.2 -0.4 -2.3z"/>
  <path d="M20 55.7 c0 -3 0.4 -3.7 2 -3.7 2 0 2 0.1 0.4 3.3 -2.3 4.5 -2.4 4.5 -2.4 0.4z"/>
  <path d="M23.2 56.8 c0.2 -1.2 1.8 -3.3 3.7 -4.5 2.1 -1.4 2.8 -2.3 1.7 -2.3 -0.9 0 -1.6 -0.7 -1.6 -1.5 0 -2.4 11.8 -2.1 12.7 0.3 0.4 0.9 1.1 2 1.7 2.4 1.9 1.3 -0.2 2 -2.6 0.8 l-2.3 -1.1 2.4 2 c2.4 2.2 4.1 2 4.1 -0.5 0 -0.8 0.7 -1.4 1.5 -1.4 1.1 0 1.5 1.1 1.5 4 l0 4 -4.1 0 c-3.2 0 -4.2 -0.4 -4.6 -1.9 -0.3 -1.1 -1.7 -2.1 -3.5 -2.5 -5.6 -1.1 -6.8 -0.8 -6.8 1.9 0 1.9 -0.5 2.5 -2.1 2.5 -1.5 0 -2 -0.5 -1.7 -2.2z"/>
  <path d="M98.5 55.3 c-0.7 -4.3 -3.6 -8.3 -5.9 -8.3 -0.9 0 -1.6 -0.8 -1.6 -2 0 -2.4 2 -2.6 6.3 -0.4 l3.2 1.5 -2.5 -2 c-1.4 -1.1 -3.5 -2.1 -4.7 -2.1 -1.3 0 -2.3 -0.4 -2.3 -1 0 -0.5 1.6 -1 3.5 -1 1.9 0 3.5 0.5 3.5 1 0 0.6 0.8 1 1.8 1 2.6 0 5.2 3.1 5.2 6.2 0 1.4 0.7 2.9 1.6 3.2 1 0.4 1.4 1.6 1.2 3.8 -0.3 3.1 -0.6 3.3 -4.5 3.6 -4.1 0.3 -4.1 0.3 -4.8 -3.5z m8.5 -2.9 c0 -0.3 -0.8 -0.3 -1.9 0.1 -1.3 0.4 -2 0 -2.4 -1.7 -0.4 -1.2 -0.9 -2 -1.2 -1.6 -0.3 0.3 -0.1 1.7 0.5 3.2 0.8 2.3 1.3 2.5 3 1.6 1.1 -0.6 2 -1.3 2 -1.6z"/>
  <path d="M42.2 46.5 c0.3 -3.8 0.5 -4 3.8 -4.3 2.9 -0.2 3.2 -0.1 1.7 0.9 -1 0.6 -2.7 2.5 -3.8 4.2 l-2 3.2 0.3 -4z"/>
  <path d="M44 49.1 c0 -1.4 3.7 -5.1 5.1 -5.1 0.6 0 0.9 1.2 0.7 2.8 -0.2 2.1 -0.9 2.8 -3 3 -1.6 0.2 -2.8 -0.1 -2.8 -0.7z"/>
 </g>
 <g fill="#d87a0a">
  <path d="M59.5 134.5 c-21 -4.6 -36.2 -16.8 -45.2 -36.2 -11.3 -24.5 -6.8 -52.1 11.5 -70.9 4.9 -5 14.7 -12.4 16.4 -12.4 0.5 0 0.8 1.1 0.8 2.5 0 2.1 -0.5 2.5 -3 2.5 -2.3 0 -3 0.4 -3 2 0 1.6 -0.7 2 -3 2 -2.5 0 -3 0.4 -3 2.3 0 2.8 -1.7 4.7 -4.2 4.7 -1.2 0 -1.8 0.8 -1.8 2.5 0 1.3 -0.6 2.8 -1.3 3.2 -1.9 1.2 -7.6 13.1 -9.2 19.3 -2.9 10.8 -0.9 25.5 4.9 37.3 6 12.1 18.5 25.3 29 30.6 2.4 1.1 7.9 3 12.2 4.2 12.6 3.3 24.1 1.6 38.4 -5.6 6.6 -3.3 19 -15.7 23.8 -23.8 7.5 -12.5 10.9 -29.3 8.2 -40.8 -1.4 -6.1 -7.7 -20 -9.7 -21.2 -0.7 -0.4 -1.3 -1.9 -1.3 -3.2 0 -1.8 -0.6 -2.5 -1.8 -2.5 -2.3 0 -5.2 -3 -5.2 -5.3 0 -1.1 -0.8 -1.7 -2.5 -1.7 -1.8 0 -2.5 -0.5 -2.5 -2 0 -1.6 -0.7 -2 -3 -2 -2.5 0 -3 -0.4 -3 -2.5 0 -1.4 0.3 -2.5 0.8 -2.5 1.8 0 12.1 7.8 16.8 12.7 10.5 11 16.1 24.2 17.1 39.9 1.6 25.2 -12.7 50.3 -34.8 61.2 -13.7 6.7 -28.8 8.7 -42.4 5.7z"/>
  <path d="M37.1 99.8 c-0.1 -3.5 0.1 -3.8 2.7 -3.8 4.7 0 7.2 1.1 7.2 3.2 0 1.7 -0.5 1.9 -4.4 1.3 -3.8 -0.6 -4.5 -0.4 -4.9 1.2 -0.3 1 -0.5 0.1 -0.6 -1.9z"/>
  <path d="M47 90.6 c-10.4 -3.9 -25 -13.3 -25 -16.1 0 -0.8 -0.4 -1.5 -1 -1.5 -0.5 0 -1 -0.6 -1 -1.4 0 -0.8 -0.5 -1.6 -1.1 -1.8 -1.4 -0.5 -2.4 -9.5 -1.5 -14.2 0.6 -3.1 1.1 -3.6 3.6 -3.6 l2.9 0 -1.9 4.3 c-2.6 5.8 -1.2 10.3 5 16.6 4.4 4.5 22.8 15.1 26.3 15.1 2 0 10 -19.2 11.1 -26.6 0.2 -1 1 -2 1.9 -2.2 1.2 -0.3 1.7 0.4 1.7 2.3 0 3.8 -2.1 11.5 -3.1 11.5 -0.5 0 -0.9 1.1 -0.9 2.5 0 1.4 -0.4 2.5 -1 2.5 -0.5 0 -1 0.9 -1 1.9 0 3.3 -1.1 5.1 -3.1 5.1 -1.5 0 -1.9 0.7 -1.9 3.5 0 3.3 -0.2 3.5 -3.2 3.4 -1.8 0 -4.9 -0.6 -6.8 -1.3z"/>
  <path d="M87.3 90.6 c-0.7 -0.8 -1.3 -2.9 -1.3 -4.6 0 -1.9 -0.5 -3 -1.4 -3 -1.4 0 -3.6 -4.9 -3.6 -8.1 0 -1.1 -0.4 -1.9 -0.9 -1.9 -1 0 -3.1 -7.7 -3.1 -11.4 0 -4.7 2.6 -2.8 4.3 3.2 2.6 9.6 8.8 23.2 10.4 23.2 2.1 0 21.3 -10 21.3 -11.1 0 -0.5 0.5 -0.9 1.1 -0.9 0.6 0 2.9 -1.9 5 -4.2 3.8 -4.2 5.9 -10.7 4.5 -14.3 -0.4 -1.1 0.2 -1.5 2.1 -1.5 2.5 0 2.5 0.1 2.1 6.2 -0.3 3.5 -1 6.4 -1.6 6.6 -0.7 0.2 -1.2 1.2 -1.2 2.3 0 1 -0.4 1.9 -0.9 1.9 -0.5 0 -1.1 0.9 -1.4 1.9 -1.1 4.5 -21.7 16.1 -29.7 16.8 -3.1 0.2 -4.9 -0.1 -5.7 -1.1z"/>
  <path d="M116.3 69.7 c0.9 -0.8 1.7 -1.9 1.7 -2.6 0 -0.6 0.4 -1.1 0.9 -1.1 0.5 0 1.4 -2.4 1.9 -5.2 0.9 -5 1 -5.1 1.1 -1.5 0.1 4.6 -2.1 9.2 -5.2 10.7 -2 1 -2 1 -0.4 -0.3z"/>
  <path d="M24.6 65.8 c-1.8 -2.5 -2.1 -8.4 -0.6 -10.8 0.6 -1 0.8 0.4 0.7 4.3 -0.1 4.2 0.2 6 1.3 6.7 0.8 0.5 1.2 1.2 0.8 1.5 -0.3 0.4 -1.3 -0.4 -2.2 -1.7z"/>
  <path d="M38 54 c0 -0.6 -2.8 -1 -6.2 -1 -4.5 0 -5.9 -0.3 -4.8 -1 2.6 -1.7 8.6 -1.1 11.1 1 1.3 1 1.8 1.9 1.2 2 -0.7 0 -1.3 -0.4 -1.3 -1z"/>
  <path d="M43.1 53.3 c0 -1 0.4 -2.7 0.9 -3.8 0.7 -1.6 0.9 -1.3 0.9 1.8 0.1 2 -0.3 3.7 -0.9 3.7 -0.5 0 -1 -0.8 -0.9 -1.7z"/>
  <path d="M77 50.5 c0 -3.1 0.3 -3.5 2.5 -3.5 2.9 0 2.8 -0.2 1.4 3.9 -1.5 4.3 -3.9 4.1 -3.9 -0.4z"/>
  <path d="M82.1 53.3 c0 -0.5 0.4 -1.7 0.9 -2.8 0.8 -1.8 0.9 -1.7 0.9 0.8 0.1 1.5 -0.3 2.7 -0.9 2.7 -0.5 0 -1 -0.3 -0.9 -0.7z"/>
  <path d="M114.3 53.3 c-0.7 -0.2 -1.3 -0.9 -1.3 -1.4 0 -1.4 3.4 -1.1 5.6 0.6 1.8 1.4 1.8 1.4 -0.6 1.4 -1.4 0 -3.1 -0.3 -3.7 -0.6z"/>
  <path d="M37.6 51.3 c-2 -1 -4.5 -1.4 -7.8 -1.1 -4.5 0.5 -4.8 0.4 -4.8 -1.8 0 -2.3 0.3 -2.4 6.5 -2.4 3.7 0 6.5 0.4 6.5 1 0 0.6 1.2 1 2.6 1 2 0 2.5 0.4 2 1.6 -0.3 0.9 -0.6 2 -0.6 2.5 0 1.3 -1 1.1 -4.4 -0.8z"/>
  <path d="M98.6 51.4 c-0.3 -0.9 -0.6 -2.5 -0.6 -3.6 0 -1.6 0.3 -1.8 1.4 -0.9 1.9 1.6 2.7 6.1 1.1 6.1 -0.7 0 -1.6 -0.7 -1.9 -1.6z"/>
  <path d="M101.3 48.4 l-2.2 -4.4 2.9 0 c2.3 0 3.1 0.5 3.6 2.4 0.7 3 0.2 5.8 -1.1 6.2 -0.5 0.2 -2 -1.7 -3.2 -4.2z"/>
  <path d="M119.6 51.4 c-1.1 -0.8 -3 -1.4 -4.3 -1.4 -1.6 0 -2.3 -0.6 -2.3 -2 0 -1.6 0.7 -2 3.3 -2 4.4 0 5.9 1.2 5.5 4.3 -0.3 2.3 -0.5 2.4 -2.2 1.1z"/>
  <path d="M60 49.3 c0 -2.2 0.2 -2.5 1 -1.3 1.3 2 1.3 4 0 4 -0.5 0 -1 -1.2 -1 -2.7z"/>
  <path d="M62.9 48.5 l-1.6 -3.5 2.8 0 c2.6 0 2.9 0.3 2.9 3.5 0 4.5 -2 4.5 -4.1 0z"/>
  <path d="M49 44 c0.8 -0.5 2.6 -1 4 -1 1.4 0 3.2 0.5 4 1 1.1 0.7 -0.1 1 -4 1 -3.9 0 -5.1 -0.3 -4 -1z"/>
  <path d="M88.5 44 c0.8 -1.3 4.5 -1.3 6.5 0 1.1 0.7 0.3 1 -2.8 1 -2.6 0 -4.1 -0.4 -3.7 -1z"/>
  <path d="M48 40.3 c0 -2.1 0.5 -2.3 5 -2.3 4.5 0 5 0.2 5 2.3 0 2 -0.5 2.2 -5 2.2 -4.5 0 -5 -0.2 -5 -2.2z"/>
  <path d="M88 40 c0 -1.7 0.7 -2 4 -2 3.3 0 4 0.3 4 2 0 1.7 -0.7 2 -4 2 -3.3 0 -4 -0.3 -4 -2z"/>
  <path d="M44.2 14.8 c0.3 -0.7 1.9 -1.8 3.6 -2.5 3.1 -1.3 3.2 -1.2 3.2 1.2 0 2.2 -0.4 2.5 -3.6 2.5 -2.3 0 -3.4 -0.4 -3.2 -1.2z"/>
  <path d="M94 13.5 c0 -2.4 0.1 -2.5 3.2 -1.2 4.6 1.9 4.8 3.7 0.4 3.7 -3.2 0 -3.6 -0.3 -3.6 -2.5z"/>
 </g>
 <g fill="#c28119">
  <path d="M63.3 128 c-5 -1.1 -14.3 -5 -14.3 -6 0 -0.4 -0.9 -1 -2.1 -1.3 -1.1 -0.3 -2.3 -1.4 -2.6 -2.5 -0.3 -1.1 -1.4 -2.2 -2.5 -2.5 -1.1 -0.3 -2.2 -1.5 -2.5 -2.6 -0.3 -1.2 -0.9 -2.1 -1.3 -2.1 -1.7 0 -3.2 -6.1 -2.6 -10.5 0.7 -4.3 0.9 -4.5 4.2 -4.5 2.8 0 3.4 0.4 3.4 2.1 0 1.4 -0.5 1.9 -1.3 1.6 -0.8 -0.3 -2 -0.1 -2.7 0.3 -1.1 0.7 -1 1.6 0.5 4.9 2.7 6 10.1 13 17.5 16.5 5.8 2.8 7.4 3.1 15.5 3 10.3 0 17.1 -2.5 24 -8.5 4.4 -3.9 9.5 -11.4 9.5 -14.1 0 -2.2 -1.3 -2.2 -8.3 -0.4 -3 0.8 -8.4 1.7 -12 2.1 -6.4 0.7 -6.7 0.6 -6.7 -1.4 0 -1.8 0.6 -2.1 3.8 -2.1 2.2 0 7.4 -0.9 11.7 -2 12.6 -3.2 15.5 -2.7 15.5 2.9 0 4.6 -3.4 12.1 -5.5 12.1 -0.8 0 -1.5 0.8 -1.5 1.8 0 2.3 -1.9 4.2 -4.2 4.2 -1 0 -1.8 0.7 -1.8 1.5 0 0.8 -0.5 1.5 -1.1 1.5 -0.6 0 -1.7 0.7 -2.5 1.5 -3.7 3.7 -21.4 6.4 -30.1 4.5z"/>
  <path d="M57 103.3 c-9.6 -1.5 -13 -2.6 -13 -3.9 0 -1.7 0.3 -1.7 11.8 -0.2 7.7 1 9.2 1.5 9.2 3 0 1.8 -2 2.1 -8 1.1z"/>
  <path d="M49 13 c0 -1.2 3.3 -3 5.4 -3 0.9 0 1.6 0.9 1.6 2 0 1.6 -0.7 2 -3.5 2 -1.9 0 -3.5 -0.4 -3.5 -1z"/>
  <path d="M89 12 c0 -2.2 2 -2.6 5.1 -1 3 1.6 2.3 3 -1.6 3 -2.8 0 -3.5 -0.4 -3.5 -2z"/>
  <path d="M57 10.3 c0 -1.7 6.1 -2.8 15.5 -2.8 9.4 0 15.5 1.1 15.5 2.8 0 0.9 -4.1 1.2 -15.5 1.2 -11.4 0 -15.5 -0.3 -15.5 -1.2z"/>
 </g>
 <g fill="#dc5f24">
  <path d="M112.3 78.9 c0.9 -0.6 1.5 -1.4 1.2 -2 -0.3 -0.5 0 -0.6 0.7 -0.4 0.8 0.3 2.5 -0.7 3.8 -2.2 1.9 -2.1 2 -2.4 0.5 -1.3 -1.1 0.7 -0.5 0 1.3 -1.8 1.7 -1.7 3.3 -3.6 3.3 -4.1 0.4 -2.9 1.9 -6.1 3 -6.1 0.5 0 0.9 1.6 0.9 3.5 0 2.8 -0.4 3.5 -2 3.5 -1.6 0 -2 0.7 -2 3.3 0 3.7 -1.5 5.7 -4.2 5.7 -1 0 -1.8 0.7 -1.8 1.5 0 1 -1 1.5 -3.2 1.5 -2.8 -0.1 -3 -0.2 -1.5 -1.1z"/>
  <path d="M22.7 75.3 c-0.4 -0.3 -0.7 -1.9 -0.7 -3.5 0 -2.1 -0.5 -2.8 -2 -2.8 -1.6 0 -2 -0.7 -2 -3.5 0 -1.9 0.4 -3.5 0.9 -3.5 0.9 0 2.5 3 2.3 4.2 -0.1 0.4 1.3 2.1 3.1 3.9 1.7 1.8 2.5 2.9 1.7 2.4 -0.9 -0.5 -0.8 0 0.4 1.3 1.9 2.2 1.9 2.2 -0.6 2.2 -1.3 0 -2.8 -0.3 -3.1 -0.7z"/>
  <path d="M115 70 c0 -1.2 2.8 -2.5 3.6 -1.7 0.3 0.3 -0.4 1 -1.5 1.7 -1.5 0.7 -2.1 0.7 -2.1 0z"/>
  <path d="M23.7 64.6 c-0.4 -1 -0.5 -2.1 -0.2 -2.4 0.9 -0.9 1.7 0.6 1.3 2.5 -0.3 1.7 -0.4 1.7 -1.1 -0.1z"/>
  <path d="M120 63.8 c0 -1.6 0.5 -2.8 1 -2.8 1.3 0 1.3 2 0 4 -0.8 1.2 -1 0.9 -1 -1.2z"/>
  <path d="M64.6 61.8 c0.1 -1.3 0.3 -2.9 0.3 -3.5 0.1 -0.7 0.8 -1.3 1.6 -1.3 1 0 1.5 1.1 1.5 3.5 0 2.7 -0.4 3.5 -1.8 3.5 -1.3 0 -1.8 -0.6 -1.6 -2.2z"/>
  <path d="M18 57.1 c0 -4.2 1 -6.1 3.1 -6.1 1.2 0 1.9 -0.7 1.9 -2 0 -2.3 4.9 -3.5 11.6 -2.7 3.3 0.3 4.7 0.1 5.1 -0.9 0.3 -0.8 1.6 -1.4 2.9 -1.4 1.9 0 2.4 -0.5 2.4 -2.4 0 -2 0.6 -2.5 4 -3.1 8.5 -1.4 17 2.1 17 7.1 0 1.3 0.5 2.4 1 2.4 0.6 0 1 1.8 1 4 0 5.5 -2.7 5.5 -3.6 0 -0.5 -2.8 -1.7 -4.9 -4.1 -7 -1.8 -1.7 -3.9 -3.1 -4.6 -3.1 -0.7 -0.1 -1.9 -0.2 -2.7 -0.3 -2.9 -0.3 -7.2 2.6 -9.3 6.2 -1.2 2 -2.1 4 -1.9 4.5 0.3 1.1 -0.6 0.9 -4.1 -1 -5.3 -2.7 -9.5 -2.3 -13.4 1.4 -1.9 1.7 -3.4 3.3 -3.3 3.5 0.1 0.1 -0.2 1.1 -0.5 2.1 -1.1 2.7 -2.5 2 -2.5 -1.2z"/>
  <path d="M23 58 c0 -1.2 1.1 -3.2 2.5 -4.5 3.3 -3.4 9.3 -3.4 13.2 0 2.3 2 2.5 2.4 1 2.5 -1 0 -3.1 -0.7 -4.7 -1.5 -4.3 -2.2 -8.6 -1 -9.4 2.6 -0.6 3.3 -2.6 3.9 -2.6 0.9z"/>
  <path d="M119.6 58.4 c-0.3 -0.9 -0.6 -2.4 -0.6 -3.5 0 -1.5 -0.7 -1.9 -3.2 -1.9 -1.8 0.1 -4.4 0.7 -5.8 1.5 -1.4 0.8 -3.4 1.4 -4.5 1.4 -1.8 0 -1.7 -0.2 0.8 -2.4 3.9 -3.4 9.9 -3.4 13.2 0 1.4 1.3 2.5 3.3 2.5 4.5 0 2.4 -1.5 2.7 -2.4 0.4z"/>
  <path d="M122.7 55.5 l-2.6 -4.5 2.9 0 c3 0 4 1.5 4 6.1 0 4.1 -1.4 3.6 -4.3 -1.6z"/>
  <path d="M43.3 52.3 c1.2 -7.4 9.1 -11.5 14.6 -7.7 3.5 2.5 6.7 11.4 4.1 11.4 -0.5 0 -1 -1.2 -1 -2.7 0 -2 -1 -3.5 -3.4 -5.3 -1.9 -1.4 -3.9 -2.5 -4.5 -2.4 -0.6 0.1 -2.2 0.2 -3.6 0.3 -1.6 0 -2.5 0.7 -2.5 1.8 0 2.6 -2.3 8.3 -3.3 8.3 -0.5 0 -0.7 -1.7 -0.4 -3.7z"/>
  <path d="M100 53 c0 -2 -0.5 -3 -1.5 -3 -0.8 0 -1.5 -0.7 -1.5 -1.5 0 -0.8 -0.7 -1.5 -1.5 -1.5 -0.8 0 -1.5 -0.7 -1.5 -1.5 0 -2.2 2.3 -1.8 4.7 0.8 2.4 2.5 4.2 9.7 2.4 9.7 -0.6 0 -1.1 -1.3 -1.1 -3z"/>
  <path d="M77 52 c0 -4.2 2.3 -9.4 5.1 -11.4 3 -2.1 8.9 -2.2 8.9 -0.1 0 0.8 -0.7 1.5 -1.7 1.5 -1.6 0 -9.4 7.4 -9.2 8.8 0.4 2.4 -0.3 4.2 -1.6 4.2 -1 0 -1.5 -1 -1.5 -3z"/>
  <path d="M82 54 c0 -2.4 3 -7.9 5.1 -9.4 5 -3.5 5.3 -1.2 0.4 3.7 -1.9 1.9 -3.5 4.2 -3.5 5.1 0 0.9 -0.4 1.6 -1 1.6 -0.5 0 -1 -0.5 -1 -1z"/>
  <path d="M103 51 c0 -2 -6.3 -9 -8.1 -9 -0.5 0 -0.9 -0.4 -0.9 -1 0 -0.5 1.6 -1 3.5 -1 2.4 0 3.5 0.5 3.5 1.5 0 0.8 0.7 1.5 1.5 1.5 0.9 0 1.5 0.9 1.5 2.5 0 2.2 0.2 2.4 2.6 1.5 1.4 -0.6 4.8 -1 7.5 -1 4.1 0 4.9 0.3 4.9 1.8 0 1.5 -0.9 1.9 -4.6 2 -2.5 0.1 -5.8 0.9 -7.4 1.7 -3.7 1.9 -4 1.9 -4 -0.5z"/>
 </g>
 <g fill="#f84032">
  <path d="M95.7 77.9 c-2 -1.2 -5.2 -7.1 -6.1 -11.4 -0.4 -1.6 -2.2 -5 -4.1 -7.4 -4 -5 -4 -5 -2.1 -9.6 4 -9.6 16.2 -7.8 18.1 2.8 0.4 2 0.9 3.7 1.2 3.7 0.3 0 1.8 -1.1 3.5 -2.5 4 -3.4 10 -3.4 13.3 0 1.4 1.3 2.5 2.9 2.5 3.5 0 1.5 -3.9 1.2 -5.6 -0.5 -1.7 -1.7 -5 -2 -5.8 -0.6 -1 1.5 2.2 3.3 6.9 3.9 5.2 0.5 5.6 1.8 2.5 7 -2 3.2 -2.8 3.6 -6.3 3.2 -1 -0.1 -4.2 1.6 -7 3.8 -6 4.6 -8.5 5.5 -11 4.1z m1.3 -27.8 c0 -1.3 -1 -2 -3.1 -2.5 -4.9 -1 -5.9 -0.7 -5.9 1.3 0 1.4 0.8 2.1 2.8 2.4 5.6 0.8 6.2 0.7 6.2 -1.2z"/>
  <path d="M46 76.3 c-0.8 -0.3 -3.5 -1.8 -6 -3.4 -2.5 -1.5 -6.4 -3.1 -8.8 -3.5 -4.5 -0.7 -8.2 -4.1 -8.2 -7.5 0 -1.4 0.7 -1.9 2.6 -1.9 4.3 0 8.4 -3 8.4 -6.2 0 -3.5 1 -3.5 4.8 -0.3 1.7 1.4 3.2 2.5 3.5 2.5 0.2 0 0.7 -1.8 1.1 -3.9 0.4 -2.7 1.6 -4.7 3.7 -6.5 5.3 -4.5 11.7 -2.7 14.5 4 2 4.8 1.7 7.2 -1.1 9.8 -1.4 1.3 -2.9 4.3 -3.5 7 -1.7 7.6 -3.6 10.6 -6.8 10.5 -1.5 0 -3.4 -0.3 -4.2 -0.6z m8.3 -25 c1.8 -0.4 2.7 -1.1 2.7 -2.4 0 -1.6 -0.8 -1.9 -4.4 -1.9 -4.1 0 -4.4 0.2 -4.8 3.1 -0.4 2.7 -0.3 3 1.6 2.4 1.2 -0.4 3.3 -0.9 4.9 -1.2z"/>
  <path d="M120 72.4 c0 -0.5 0.7 -1.8 1.5 -2.8 1.2 -1.6 1.5 -1.7 1.5 -0.4 0 0.8 -0.7 2.1 -1.5 2.8 -0.8 0.7 -1.5 0.9 -1.5 0.4z"/>
  <path d="M22.1 69.4 c-1.2 -1.5 -2.1 -3.4 -2 -4.3 0 -1.3 0.1 -1.4 0.6 -0.1 0.3 0.8 1.5 2.7 2.5 4.3 2.5 3.5 1.6 3.5 -1.1 0.1z"/>
  <path d="M65.2 56 c-0.1 -2.5 -1.1 -6.2 -2.1 -8.3 -1.4 -2.8 -1.6 -3.7 -0.5 -3.7 1.9 0 3.6 6.6 3.2 12 l-0.5 4.5 -0.1 -4.5z"/>
  <path d="M23 57 c0 -1.4 4.6 -6 6 -6 1.5 0 1.2 3.9 -0.4 5.6 -1.7 1.6 -5.6 1.9 -5.6 0.4z"/>
  <path d="M79.1 54.4 c-0.1 -5.1 1.6 -10.4 3.5 -10.4 1.2 0 1.1 0.5 -0.3 2.7 -1 1.4 -2 4.7 -2.4 7.2 l-0.6 4.6 -0.2 -4.1z"/>
  <path d="M120.3 52.3 c-3.5 -3.7 -6.4 -4.1 -12 -1.8 -4.4 1.9 -5.3 1.9 -5.3 0.1 0 -2.2 -4.1 -6.8 -7.5 -8.2 -2.3 -0.9 -4.2 -1.1 -6.4 -0.4 -2.4 0.7 -3.1 0.6 -3.1 -0.6 0 -1 1.3 -1.4 4.8 -1.4 6.6 0 9.2 0.9 9.2 3.1 0 1.2 0.7 1.9 2 1.9 1.2 0 2 0.7 2 1.8 0 1.5 0.9 1.7 7.8 1.4 6.6 -0.3 8 -0.1 10 1.6 1.3 1.2 2.2 2.9 2 3.9 -0.3 1.5 -0.8 1.3 -3.5 -1.4z"/>
  <path d="M21 53.5 c0 -2.3 2.6 -4.7 4.8 -4.3 1.5 0.2 1.2 0.8 -1.5 3.1 -2.6 2.3 -3.3 2.5 -3.3 1.2z"/>
  <path d="M37 50.5 l-2.5 -1.4 2.8 -0.1 c2 0 3 -0.6 3.4 -2 0.3 -1.1 1.4 -2 2.4 -2 1.7 0 1.7 0.2 -0.2 3.5 -2.4 3.9 -2.4 4 -5.9 2z"/>
  <path d="M47 41.4 c0 -1.1 1.4 -1.4 6 -1.4 4.6 0 6 0.3 6 1.4 0 1.2 -0.6 1.3 -3 0.5 -2.1 -0.8 -3.9 -0.8 -6 0 -2.4 0.8 -3 0.7 -3 -0.5z"/>
 </g>
 <g fill="#e78908">
  <path d="M57.1 131 c-4 -1.1 -9.3 -2.9 -11.7 -4.1 -10.5 -5.3 -23 -18.5 -29 -30.6 -6 -12.1 -8.2 -31.1 -4.9 -43.3 4.3 -16.3 18.9 -33.2 34 -39.6 3.4 -1.4 3.5 -1.4 3.5 1 0 1.7 -0.9 2.7 -3.2 3.7 -6.2 2.6 -16.7 12.4 -21.6 20.3 -6.5 10.2 -8.6 17.5 -8.6 29.6 -0.1 8.1 0.4 12.1 2.1 17.5 4.4 14.1 14.5 26.8 27.1 34.3 10.2 6.1 16 7.7 28.2 7.7 9.6 0 11.2 -0.3 18.3 -3.2 9.6 -4 13.5 -6.6 21.3 -14.3 6.5 -6.4 11.7 -14.9 14.7 -24 2.2 -6.7 3.2 -21 1.9 -26.5 l-1 -4 -0.1 5.2 c-0.1 6.2 -3.3 14.8 -6.7 18.4 -1.4 1.5 -6.9 4.9 -12.3 7.8 -8.7 4.5 -10.5 5.1 -16 5.1 -5.4 0 -6.1 -0.2 -6.1 -2 0 -1.1 -0.4 -2 -1 -2 -0.5 0 -1 -1.6 -1 -3.5 0 -4.5 1.7 -4.5 3.5 -0.1 0.8 1.9 1.9 3.8 2.5 4.1 1.4 0.9 14.1 -5 21.3 -9.8 6 -4 11.1 -10.5 12.2 -15.8 0.5 -2 0 -4.3 -1.3 -6.9 l-1.9 -4 2.8 0 c1.5 0 2.9 0.6 3.2 1.3 0.2 0.6 0.2 0.1 0 -1.3 -1.7 -9.7 -15.1 -26.5 -26 -32.6 -2.9 -1.6 -5.3 -3.2 -5.3 -3.6 0 -0.5 -1.1 -0.8 -2.5 -0.8 -1.4 0 -2.5 -0.4 -2.5 -1 0 -0.5 -1.3 -1 -3 -1 -2.3 0 -3 -0.4 -3 -2 0 -2.7 2 -2.5 10.6 0.9 14.7 5.8 27.2 17.1 33.7 30.4 4.8 9.9 6.1 16.4 5.5 28.8 -0.8 17.7 -6.5 30.3 -19.8 43.9 -11.5 11.9 -22.9 16.9 -40 17.6 -8.4 0.3 -12 0 -17.9 -1.6z"/>
  <path d="M36.7 87.4 c-5 -2.5 -10.8 -6.4 -13.3 -8.9 -3.9 -4 -4.4 -5 -4.4 -9 0 -2.5 0.3 -4.5 0.8 -4.5 0.4 0 2 2 3.5 4.5 4.1 6.5 15.2 14 26.9 18.1 3.7 1.3 3.8 1.3 5.3 -1.6 2.1 -4 3.5 -3.8 3.5 0.5 0 2.4 -0.5 3.5 -1.5 3.5 -0.8 0 -1.5 0.5 -1.5 1 0 0.6 -2.4 1 -5.2 0.9 -4.2 0 -7.1 -0.9 -14.1 -4.5z"/>
  <path d="M59.3 77.8 c1.9 -4.6 3.7 -4.8 3.7 -0.4 0 3.2 -0.3 3.6 -2.5 3.6 -2.4 0 -2.5 -0.1 -1.2 -3.2z"/>
  <path d="M80 72.4 c0 -4.4 1.8 -4.2 3.7 0.4 1.3 3.1 1.2 3.2 -1.2 3.2 -2.2 0 -2.5 -0.4 -2.5 -3.6z"/>
  <path d="M119.6 65.5 c0.4 -1.1 0.7 -3.9 0.7 -6.3 -0.2 -2.8 0.2 -4 0.9 -3.6 1.4 0.9 0.4 9.2 -1.2 10.7 -1 1 -1.1 0.8 -0.4 -0.8z"/>
  <path d="M20.2 52.4 c0.3 -3.7 0.5 -3.9 4.1 -4.2 2 -0.2 3.7 0 3.6 0.5 0 0.4 -1.9 2.3 -4.1 4.2 l-3.9 3.5 0.3 -4z"/>
  <path d="M24.6 54.6 c0.8 -2.2 3.6 -3 3.2 -0.9 -0.2 1 -1.1 1.9 -2.1 2.1 -1.2 0.2 -1.5 -0.1 -1.1 -1.2z"/>
  <path d="M34 52.5 c0 -1.9 0.9 -1.9 3.4 0 1.9 1.4 1.9 1.5 -0.7 1.5 -1.7 0 -2.7 -0.5 -2.7 -1.5z"/>
  <path d="M109 52 c2 -1.3 5 -1.3 5 0 0 0.6 -1.5 1 -3.2 1 -2.5 0 -2.9 -0.3 -1.8 -1z"/>
  <path d="M36.8 50.4 c-3.8 -2 -3.5 -3.4 0.7 -3.4 3.1 0 3.5 0.3 3.5 2.5 0 2.9 -0.5 3 -4.2 0.9z"/>
  <path d="M107 48.4 c0 -2.1 0.5 -2.4 3.5 -2.4 2.2 0 3.5 0.5 3.5 1.3 0 0.8 -1.6 1.8 -3.5 2.4 -3.3 1.1 -3.5 1 -3.5 -1.3z"/>
  <path d="M90 45.1 l-3.5 -0.7 2.7 -0.7 c1.7 -0.5 4 -0.2 6 0.7 3 1.3 3.1 1.4 0.8 1.4 -1.4 0 -4.1 -0.4 -6 -0.7z"/>
  <path d="M96.1 42.8 c-2.1 -1 -4.5 -1.5 -6.2 -1.1 -2.5 0.5 -2.9 0.2 -2.9 -1.7 0 -2.2 0.2 -2.2 6.2 -1.6 3.5 0.4 6.4 0.9 6.6 1.1 0.2 0.2 0.2 1.4 0 2.7 -0.3 2.3 -0.3 2.3 -3.7 0.6z"/>
  <path d="M53 11.6 c0 -1.3 2.8 -2.6 5.8 -2.6 0.6 0 1.2 0.9 1.2 2 0 1.6 -0.7 2 -3.5 2 -2.3 0 -3.5 -0.5 -3.5 -1.4z"/>
 </g>
 <g fill="#e29124">
  <path d="M54.4 128.6 c-23.2 -7.5 -39.8 -28.2 -42 -52.7 -0.7 -6.6 -0.6 -6.9 1.5 -6.9 1.8 0 2.1 0.6 2.1 3.8 0 2 1.1 6.7 2.3 10.3 9.5 27.9 39.7 47.5 63.7 41.5 23.7 -5.9 42.9 -26.3 46.6 -49.5 0.5 -3.2 1.1 -4.1 2.7 -4.1 1.8 0 1.9 0.4 1.3 6.4 -1.4 13.4 -7.5 26.2 -17 35.6 -7.9 7.7 -11.8 10.3 -21.3 14.3 -7.2 2.9 -8.8 3.2 -20.3 3.4 -10.7 0.2 -13.5 -0.1 -19.6 -2.1z"/>
  <path d="M106.1 103.3 c1.1 -2.9 -0.4 -4.7 -3.1 -3.7 -2.6 1 -13.4 3.4 -15.2 3.4 -1.1 0 -1.8 -0.7 -1.8 -1.8 0 -1.3 1.4 -2.1 6.3 -3.1 3.4 -0.7 8.5 -1.6 11.3 -1.8 4.7 -0.4 5.2 -0.3 5.7 1.9 0.4 1.2 0.7 3.5 0.7 5.1 0 2.2 -0.4 2.7 -2.5 2.7 -2.2 0 -2.4 -0.2 -1.4 -2.7z"/>
  <path d="M54 102.5 c-4.7 -0.8 -9.8 -1.8 -11.3 -2.4 -1.6 -0.6 -3.3 -0.9 -3.8 -0.5 -0.5 0.3 -0.9 -0.5 -0.9 -1.7 0 -2 0.4 -2.1 4.3 -1.6 2.3 0.4 7.4 1.3 11.2 2.1 3.9 0.9 9.4 1.5 12.3 1.6 4.5 0 5.2 0.3 5.2 2 0 1.7 -0.6 2 -4.2 1.9 -2.4 -0.1 -8.1 -0.7 -12.8 -1.4z"/>
  <path d="M73 102 c0 -1.8 0.7 -2 6 -2 4.4 0 6 0.4 6 1.4 0 1.6 -3 2.6 -8.2 2.6 -3.1 0 -3.8 -0.4 -3.8 -2z"/>
  <path d="M89.3 93.3 c-0.7 -0.2 -1.3 -2 -1.3 -3.9 0 -2.7 -0.4 -3.4 -1.9 -3.4 -2 0 -3.1 -1.8 -3.1 -5.1 0 -1 -0.4 -1.9 -1 -1.9 -0.5 0 -1 -1.1 -1 -2.5 0 -1.4 -0.4 -2.5 -0.9 -2.5 -1 0 -3.1 -7.7 -3.1 -11.4 0 -4.5 2.7 -3 4 2.1 0.6 2.7 3 9.2 5.2 14.5 3.8 9.3 4.2 9.8 7 9.8 3.5 0 19.8 -8.2 24.4 -12.2 1.8 -1.6 4 -5.1 5 -7.8 2.3 -6.3 4.4 -6.6 4.4 -0.7 0 8 -6 13.9 -22.1 21.7 -7.6 3.7 -12.3 4.7 -15.6 3.3z"/>
  <path d="M37.3 88.7 c-16.5 -8.7 -19.3 -12.4 -20.1 -25.8 -0.3 -6.3 -0.1 -8.9 0.7 -8.9 0.6 0 1.1 -0.9 1.1 -2 0 -1.6 0.7 -2 3.5 -2 l3.4 0 -2.4 2.6 c-3.2 3.5 -3.9 7.5 -2.3 13.7 1.8 7.1 7.2 12.4 18.8 18.2 11.6 5.8 13.7 5.7 16.7 -0.7 1.3 -2.7 2.7 -4.8 3.3 -4.8 1.5 0 1.2 6.7 -0.4 8.2 -0.8 0.8 -1.5 2.3 -1.8 3.4 -0.3 1.6 -1.3 1.9 -6.3 2.1 -5.4 0.3 -6.8 -0.2 -14.2 -4z"/>
  <path d="M61.3 72.8 c1.9 -4.6 3.7 -4.8 3.7 -0.4 0 3.2 -0.3 3.6 -2.5 3.6 -2.4 0 -2.5 -0.1 -1.2 -3.2z"/>
  <path d="M64 65.8 c0 -3 1.3 -5.8 2.6 -5.8 0.9 0 1.4 1.2 1.4 3.5 0 2.8 -0.4 3.5 -2 3.5 -1.1 0 -2 -0.6 -2 -1.2z"/>
  <path d="M23.2 60 c-0.1 -1.9 0.5 -4.4 1.3 -5.4 1.5 -1.9 1.5 -1.9 1.5 0.2 0 1.2 -0.4 2.2 -0.9 2.2 -0.6 0 -1.2 1.5 -1.4 3.3 l-0.4 3.2 -0.1 -3.5z"/>
  <path d="M36 53.5 c0 -1.3 0.4 -1.4 2 -0.5 1.1 0.6 2 1.3 2 1.5 0 0.3 -0.9 0.5 -2 0.5 -1.1 0 -2 -0.7 -2 -1.5z"/>
  <path d="M100 51.8 c0 -3.6 0.4 -3.5 1.4 0.5 0.4 1.6 0.2 2.7 -0.4 2.7 -0.5 0 -1 -1.4 -1 -3.2z"/>
  <path d="M64.3 50.5 c-1.1 -3.3 -1 -3.5 1.3 -3.5 2.1 0 2.4 0.5 2.4 3.5 0 2.2 -0.5 3.5 -1.3 3.5 -0.8 0 -1.8 -1.6 -2.4 -3.5z"/>
  <path d="M37.8 50.6 c-2.5 -1.8 -2.2 -2.6 0.6 -2.6 2.1 0 2.5 -0.6 2.8 -3.2 0.2 -2.8 0.8 -3.4 3.1 -3.6 1.5 -0.2 2.7 -0.9 2.7 -1.8 0 -1.1 1.5 -1.4 6 -1.4 5.7 0 6 0.1 6 2.5 0 2.2 -0.2 2.4 -2.7 1.4 -5.1 -1.9 -10.8 1.3 -14.2 7.9 -1.3 2.5 -1.9 2.6 -4.3 0.8z"/>
  <path d="M102.7 50 c-0.4 -1.6 0 -2 2 -2 1.8 0 2.4 0.5 2.1 1.7 -0.5 2.6 -3.4 2.8 -4.1 0.3z"/>
  <path d="M45 48.2 c0 -3.1 7.2 -5.9 11 -4.3 2.2 0.9 2 1 -2.1 1 -3.8 0.1 -4.8 0.5 -5.2 2.1 -0.5 1.9 -3.7 2.9 -3.7 1.2z"/>
  <path d="M90 44 c0 -1.2 1.7 -1.2 4.5 0 1.7 0.7 1.5 0.9 -1.2 0.9 -1.8 0.1 -3.3 -0.3 -3.3 -0.9z"/>
  <path d="M91.8 41.3 c-3.3 -0.8 -2 -3.3 1.7 -3.3 2.8 0 3.5 0.4 3.5 2 0 2 -1.4 2.3 -5.2 1.3z"/>
  <path d="M47 13.9 c0 -1.1 6 -3.9 8.5 -3.9 2.4 0 1.8 3.7 -0.7 4.4 -3.6 0.9 -7.8 0.7 -7.8 -0.5z"/>
  <path d="M88 12 c0 -2.2 2 -2.6 5.1 -1 3 1.6 2.3 3 -1.6 3 -2.8 0 -3.5 -0.4 -3.5 -2z"/>
  <path d="M58 10.6 c0 -1.3 2.8 -2.6 5.8 -2.6 0.6 0 1.2 0.9 1.2 2 0 1.6 -0.7 2 -3.5 2 -2.3 0 -3.5 -0.5 -3.5 -1.4z"/>
  <path d="M80 10 c0 -2.1 1 -2.4 4.8 -1.4 3.6 1 2.7 3.4 -1.3 3.4 -2.8 0 -3.5 -0.4 -3.5 -2z"/>
  <path d="M67 9.6 c0 -0.8 1.2 -1.7 2.6 -2 3.6 -0.9 8.4 0.2 8.4 2 0 1 -1.4 1.4 -5.5 1.4 -4 0 -5.5 -0.4 -5.5 -1.4z"/>
 </g>
 <g fill="#f39c0e">
  <path d="M60 127.5 c-21 -5.2 -38.7 -22 -45.2 -43 -3.2 -10.3 -3.1 -27.5 0.1 -36.5 7 -19.1 22.9 -33.5 42.6 -38.5 8.1 -2.1 11.5 -2 11.5 0.3 0 1.3 -1.4 2 -6.2 2.9 -10 1.9 -20.2 7.6 -28.3 15.7 -3.8 3.9 -8.2 9.4 -9.7 12.1 -3.1 5.8 -7.1 19.7 -5.8 20.5 0.4 0.3 1.1 2.3 1.5 4.5 1.5 8.4 6.8 13.6 21.3 20.9 10.7 5.4 11.9 5 16.3 -5.4 4 -9.3 5.9 -11.1 5.9 -5.6 0 2 -0.4 3.6 -1 3.6 -0.5 0 -1 1.1 -1 2.5 0 1.4 -0.4 2.5 -0.9 2.5 -0.4 0 -1.1 1.6 -1.4 3.6 -0.9 5.4 -2.2 6.4 -8.3 6.4 -4.4 0 -7.1 -0.8 -14.2 -4.4 -4.8 -2.4 -10.4 -5.8 -12.6 -7.5 -4.6 -3.7 -4.9 -3.8 -4.1 -0.8 1.3 4.6 4 10.7 4.8 10.7 0.4 0 0.7 0.7 0.7 1.5 0 1.3 2.9 5 7.8 10.1 0.7 0.8 1.8 1.4 2.3 1.4 0.5 0 0.9 0.7 0.9 1.5 0 0.8 0.5 1.5 1 1.5 0.6 0 3.8 2.5 7.1 5.6 17.2 15.8 37.5 15.8 54.5 -0.1 2.7 -2.5 5.3 -4.5 5.8 -4.5 0.8 0 5.5 -4.7 10.7 -10.6 2.1 -2.5 8.9 -16.8 8.9 -18.9 0 -0.4 -2.1 0.9 -4.7 2.8 -2.7 1.9 -8.5 5.3 -13 7.6 -6.7 3.3 -9.3 4.1 -13.7 4.1 -6.5 0 -8.6 -2.1 -8.6 -8.2 0 -2.7 -0.4 -3.8 -1.5 -3.8 -0.9 0 -1.5 -0.9 -1.5 -2.5 0 -1.4 -0.4 -2.5 -1 -2.5 -0.5 0 -1 -1.6 -1 -3.5 0 -4.6 1.7 -4.5 3.6 0.3 4.4 10.5 6.9 15.4 8.4 16.2 1.3 0.7 4 -0.1 9.9 -3 17.5 -8.5 22.2 -13.6 22.4 -24.5 0.2 -6.5 0.1 -6.7 -3.5 -10.1 -2.1 -1.9 -3.8 -3.6 -3.8 -3.9 0 -0.3 1.4 -0.5 3 -0.5 1.7 0 3 -0.5 3 -1 0 -3.2 -6.2 -12.4 -12.5 -18.7 -8.2 -8 -18.6 -13.7 -28.6 -15.6 -4.6 -0.9 -5.9 -1.6 -5.9 -2.9 0 -2.3 3.4 -2.4 11.5 -0.3 16.1 4.1 32.6 16.9 39.2 30.6 14.7 29.9 2.1 66.9 -27.9 82.2 -12.9 6.5 -26.1 8.3 -38.8 5.2z"/>
  <path d="M66.8 103.3 c-1 -0.2 -1.8 -1.1 -1.8 -1.9 0 -1.1 1.6 -1.4 7 -1.4 5.3 0 7 0.3 7 1.4 0 2.2 -7 3.3 -12.2 1.9z"/>
  <path d="M35 99.4 l0 -3.6 5.8 0.5 c3.1 0.2 8.7 1 12.5 1.8 5.4 1.1 6.7 1.7 6.7 3.2 0 1.6 -0.5 1.8 -4.2 1.2 -2.4 -0.3 -6.9 -1.3 -10.1 -2.1 -6.1 -1.5 -7.7 -1.2 -7.7 1.2 0 0.8 -0.7 1.4 -1.5 1.4 -1.1 0 -1.5 -1.1 -1.5 -3.6z"/>
  <path d="M85 101.3 c0 -1.5 1.3 -2.1 6.5 -3.1 8.3 -1.6 10.5 -1.5 10.5 0.2 0 1.4 -4.3 2.8 -12.7 4.1 -3.8 0.6 -4.3 0.4 -4.3 -1.2z"/>
  <path d="M121.1 59.9 c-0.1 -2.8 -0.6 -3.8 -2.1 -4.2 -1.1 -0.3 -2 -1.2 -2 -2.1 0 -0.9 0.6 -1.3 1.4 -1 2.1 0.8 3.8 4.8 3.3 8 -0.4 2.6 -0.4 2.5 -0.6 -0.7z"/>
  <path d="M76 57.5 c0 -2.8 0.4 -3.5 2 -3.5 1.6 0 2 0.7 2 3.5 0 2.8 -0.4 3.5 -2 3.5 -1.6 0 -2 -0.7 -2 -3.5z"/>
  <path d="M105 54.5 c0 -0.2 1.4 -1.1 3 -2 2.5 -1.3 3 -1.3 3 -0.1 0 0.7 -0.7 1.7 -1.6 2 -1.9 0.7 -4.4 0.8 -4.4 0.1z"/>
  <path d="M27.5 52 c0.3 -0.5 1.3 -1 2.1 -1 0.8 0 1.4 0.5 1.4 1 0 0.6 -0.9 1 -2.1 1 -1.1 0 -1.7 -0.4 -1.4 -1z"/>
  <path d="M103.1 50.1 c-1.2 -2.2 0.2 -3.1 5 -3.1 3.7 0 3.7 1.5 -0.1 3.5 -3.7 1.9 -3.7 1.9 -4.9 -0.4z"/>
  <path d="M24 48.6 c0 -2.3 0.4 -2.6 3.5 -2.6 3.7 0 5 2.3 1.8 3.3 -1 0.2 -2.6 0.8 -3.5 1.2 -1.5 0.6 -1.8 0.2 -1.8 -1.9z"/>
 </g>
 <g fill="#f95b50">
  <path d="M24.6 64.9 c-4.1 -5.9 0.2 -13.9 7.3 -13.9 3.9 0 9.9 3.9 8.8 5.7 -0.4 0.6 -2.8 2.3 -5.5 3.8 -2.6 1.5 -5.7 3.6 -6.8 4.7 -2.2 1.9 -2.2 1.9 -3.8 -0.3z"/>
  <path d="M116.6 65.1 c-1 -1.1 -3 -2.3 -4.5 -2.6 -2.9 -0.7 -8.1 -4.8 -8.1 -6.5 0 -1.3 6 -5 8.3 -5 1 0 1.7 0.8 1.7 1.9 0 1.1 0.5 2.3 1 2.6 0.6 0.3 1 -0.3 1 -1.4 0 -2.7 1.4 -2.7 4 0.1 2.2 2.4 2.6 6.2 1 10.2 -1.1 3.1 -2.1 3.2 -4.4 0.7z"/>
  <path d="M20 55.3 c0 -1.3 0.5 -2.3 1 -2.3 0.6 0 1 -0.7 1 -1.5 0 -0.8 0.7 -1.5 1.5 -1.5 0.8 0 1.5 -0.4 1.5 -1 0 -1.5 13.7 -1.3 14.3 0.3 0.3 0.6 1 -0.3 1.7 -2 0.7 -1.8 1.8 -3.3 2.6 -3.3 0.8 0 1.4 -0.7 1.4 -1.5 0 -1 1 -1.5 2.8 -1.5 l2.7 0.1 -2.8 1.7 c-1.6 0.9 -3.7 3.4 -4.8 5.4 l-1.9 3.7 -3.5 -1.4 c-6.8 -2.9 -13 -1.2 -16 4.4 -1.4 2.5 -1.4 2.5 -1.5 0.4z"/>
  <path d="M124.1 56.4 c0 -0.6 -1.2 -2.3 -2.6 -3.8 -2.2 -2.4 -2.3 -2.6 -0.5 -2.6 1.1 0 2 0.6 2 1.4 0 0.8 0.5 1.6 1.1 1.8 0.6 0.2 0.9 1.3 0.6 2.3 -0.2 1.1 -0.5 1.5 -0.6 0.9z"/>
  <path d="M43.4 52.9 c0.8 -4.2 3.5 -7.9 6.4 -9 1.9 -0.7 2.2 -0.5 2.2 1.6 0 1.4 0.5 2.5 1 2.5 0.6 0 1 -1.1 1 -2.4 0 -2 0.4 -2.3 2.1 -1.9 2.4 0.7 5.9 5.8 5.9 8.8 0 1.6 -0.7 2 -3.7 2.2 -2.1 0.1 -6.5 0.5 -9.7 0.9 l-5.9 0.6 0.7 -3.3z"/>
  <path d="M92 54.8 c-3 -0.5 -6.3 -0.7 -7.2 -0.4 -4.2 1 -0.5 -8.8 3.9 -10.5 3.4 -1.2 8.9 0.5 10.7 3.4 0.8 1.2 1.7 3.7 2.1 5.5 0.8 3.7 0.5 3.7 -9.5 2z"/>
  <path d="M101.6 47.8 c-2.4 -3.6 -2.4 -3.8 -0.5 -3.8 1.4 0 2.1 0.9 2.6 3 0.5 2.9 2.8 4.1 3.5 1.9 0.2 -0.6 1.8 -0.9 3.5 -0.7 3 0.3 3 0.4 -1.7 1.9 l-4.9 1.5 -2.5 -3.8z"/>
  <path d="M80 49.2 c0 -2.6 3.2 -7.3 5.6 -8.2 3.3 -1.3 10.4 -1.3 10.4 0 0 0.6 -1 0.8 -2.4 0.4 -3.5 -0.8 -9.3 2 -11.6 5.8 -1.1 1.8 -2 2.7 -2 2z"/>
  <path d="M59.1 43.3 c-3 -2 -3.1 -2.3 -1.2 -2.3 2.4 0 5.5 2.4 4.9 3.8 -0.2 0.5 -1.8 -0.2 -3.7 -1.5z"/>
 </g>
 <g fill="#eda824">
  <path d="M63.5 126.4 c-5.8 -1.5 -19 -8.4 -20.7 -10.8 -0.4 -0.6 -0.8 -0.7 -0.8 -0.2 0 0.6 -0.9 0 -2 -1.1 -1 -1.2 -2.8 -2.4 -4 -2.8 -1.1 -0.3 -2 -1.4 -2 -2.2 0 -0.9 -0.3 -1.3 -0.6 -1 -0.4 0.4 -1.6 -0.3 -2.6 -1.6 -1.1 -1.2 -3.3 -3.7 -4.9 -5.4 -1.6 -1.8 -2.9 -3.9 -2.9 -4.8 0 -0.8 -0.3 -1.5 -0.7 -1.5 -0.8 0 -3.3 -5.7 -5.4 -12.5 -0.6 -2.1 -1.2 -8.4 -1.3 -14 -0.1 -9.8 -0.1 -10 2.3 -10.3 2.3 -0.4 2.3 -0.2 1.7 5.1 -0.9 7.1 0.5 10 7.6 15.4 6.5 5 20.9 12.3 24.2 12.3 3.2 0 3.6 -0.7 8.6 -14 3 -8 4.5 -13.5 4.8 -18.2 0.4 -5.8 0.7 -6.8 2.3 -6.8 1.5 0 1.9 0.7 1.9 3.9 0 10.9 -7.3 35.8 -11.3 38.6 -4.8 3.4 -15.3 0.5 -28.6 -7.9 -2.4 -1.5 -4.5 -2.5 -4.8 -2.3 -0.6 0.7 4.4 9.5 7 12.4 2 2.2 2 2.2 3.7 0.3 2.2 -2.5 3.8 -2.5 14.2 0 4.6 1.1 9.5 2 11.1 2 2.1 0 2.7 0.5 2.7 2.1 0 2 -0.3 2.1 -5.6 1.4 -3.1 -0.4 -8.1 -1.3 -11.1 -2.1 -7.3 -1.9 -8.3 -1.8 -8.3 0.9 0 5.8 9.5 16.2 18.6 20.4 15.2 6.9 31.2 3.8 42.9 -8.4 2.3 -2.4 5 -6.2 6 -8.4 2.6 -5.7 1.3 -6.6 -6.7 -4.6 -3.5 0.9 -8.7 1.9 -11.5 2.3 -4.9 0.6 -5.3 0.5 -5.3 -1.3 0 -1.7 0.9 -2.2 5.8 -2.8 8.2 -1 11 -2.3 5 -2.4 -6 -0.1 -7.8 -2.4 -11.7 -14.5 -3.9 -12.5 -5.5 -21.7 -4.8 -28.5 0.8 -7.7 1.5 -9.1 4.3 -9.1 1.9 0 2.4 -0.5 2.4 -2.4 0 -2.8 2.1 -3.6 9.8 -3.6 3.8 0 5.2 0.4 5.2 1.4 0 0.9 1.2 1.6 2.8 1.8 2.3 0.3 2.7 0.8 3 4 0.2 2.1 0.1 3.8 -0.2 3.8 -0.3 0 -2.1 -1.7 -4 -3.7 -2.8 -3.1 -4.1 -3.8 -7.3 -3.8 -11.9 0 -15.7 12.3 -9.3 30.2 6.9 19.3 6.9 19.3 10.6 19.3 5.7 0 27.7 -13.2 30.6 -18.3 1.2 -2.1 1.9 -15.7 0.8 -15.7 -0.3 0 -1.4 -1.3 -2.3 -2.9 -1 -1.7 -3.3 -3.5 -5.2 -4.2 -4.6 -1.7 -4.6 -3.9 0 -3.9 2.8 0 3.5 0.4 3.5 2 0 1.5 0.7 2 2.5 2 1.6 0 2.5 0.6 2.5 1.5 0 0.8 0.7 1.5 1.5 1.5 0.8 0 1.7 1.4 2.1 3.7 1 5.3 -0.3 22.4 -2.2 27.4 -0.9 2.4 -1.7 4.9 -1.8 5.4 -0.6 2.6 -4.3 9.3 -6.6 11.9 -4.9 5.8 -9.8 10.6 -10.7 10.6 -0.5 0 -1.8 0.8 -2.9 1.8 -2.2 2 -7 4.8 -16.4 9.4 -5.5 2.7 -7.7 3.2 -15 3.4 -4.7 0.2 -9.4 0.1 -10.5 -0.2z m55.6 -37.7 c2.5 -4.8 1.9 -5.6 -1.9 -2.8 -1.6 1.1 -6.7 3.9 -11.3 6.1 -6.5 3.2 -7.6 4 -4.7 3.5 5.7 -1.1 8.8 0 8.8 3.1 0 2.5 0.2 2.4 3.6 -1.7 1.9 -2.3 4.4 -6 5.5 -8.2z"/>
  <path d="M44 52.5 c0 -1.1 0.5 -2.7 1 -3.5 0.8 -1.2 1 -1.2 1 0.5 0 1.1 -0.5 2.7 -1 3.5 -0.8 1.2 -1 1.2 -1 -0.5z"/>
  <path d="M22 50 c0 -2.8 0.3 -3 3.5 -3 4.4 0 4.4 0.9 0 3.8 l-3.5 2.2 0 -3z"/>
  <path d="M32 52 c0 -1.3 2 -1.3 4 0 1.2 0.8 0.9 1 -1.2 1 -1.6 0 -2.8 -0.4 -2.8 -1z"/>
  <path d="M114 52 c0 -1.3 1.1 -1.3 3 0 1.2 0.8 1.1 1 -0.7 1 -1.3 0 -2.3 -0.4 -2.3 -1z"/>
  <path d="M36.3 50.2 c-4.7 -1.8 -5.8 -4.2 -1.9 -4.2 5.8 0 8.6 -1.2 8.6 -3.6 0 -2.1 0.5 -2.4 3.5 -2.4 4.1 0 4.5 1.1 0.9 3 -1.4 0.8 -3.4 3.1 -4.5 5.2 -1.1 2.1 -2 3.7 -2.2 3.7 -0.1 -0.1 -2.1 -0.9 -4.4 -1.7z"/>
  <path d="M96.3 46.9 c-0.5 -1.9 -1.1 -2.1 -5 -1.5 -2.8 0.4 -4.2 0.2 -3.8 -0.4 0.8 -1.3 7.1 -1.3 9.4 0 2.5 1.3 3.5 4 1.5 4 -0.9 0 -1.8 -1 -2.1 -2.1z"/>
  <path d="M46 46.5 c0 -0.2 0.9 -0.9 2 -1.5 1.6 -0.9 2 -0.8 2 0.5 0 0.8 -0.9 1.5 -2 1.5 -1.1 0 -2 -0.2 -2 -0.5z"/>
  <path d="M55 45 c0 -1.3 1.1 -1.3 3 0 1.2 0.8 1.1 1 -0.7 1 -1.3 0 -2.3 -0.4 -2.3 -1z"/>
  <path d="M58.3 42.8 c-4.2 -2.6 -4.2 -3.8 0.2 -3.8 3.2 0 3.5 0.2 3.5 3 0 1.7 -0.1 3 -0.2 2.9 -0.2 0 -1.8 -1 -3.5 -2.1z"/>
 </g>
 <g fill="#fcb214">
  <path d="M61.8 125.5 c-7 -1.9 -13.5 -6 -20.4 -12.9 -3.4 -3.4 -8.1 -8 -10.6 -10.4 -4.7 -4.5 -11.1 -16.1 -12.7 -22.7 -0.5 -2.2 -1.4 -7.8 -2.1 -12.5 -1.1 -7.8 -1 -9.1 1 -16.5 3 -11 6.3 -16.8 14.5 -25.1 22.9 -23 58.7 -23 82.1 0 5.1 5 8.2 9.2 10.3 13.6 3.8 8.1 6.5 19.9 5.6 24.6 l-0.6 3.6 -1.9 -3.6 c-1.9 -3.9 -3.2 -7.8 -3.6 -11.2 -0.4 -3.4 -4.7 -11.3 -9.8 -18 -7.9 -10.6 -18.9 -17.6 -33.1 -21.1 -5.8 -1.4 -7.8 -1.5 -13.9 -0.5 -16.8 2.8 -32.3 14.3 -40.4 30 -2.4 4.5 -3.9 8.2 -3.3 8.2 0.5 0 0.1 1.7 -0.9 3.8 -5.4 11.1 -5.3 10.7 -4.1 14.5 1.8 5.5 10.4 12.6 22.5 18.7 9.4 4.8 10.8 5.2 13.1 4.2 2.9 -1.3 5.4 -6.5 8.8 -17.9 2.2 -7.5 4.7 -9.8 4.7 -4.3 0 4.3 -5.6 21.3 -8.1 24.4 -1.1 1.4 -3 2.7 -4.2 2.7 -3.7 0.2 3.2 1.6 8.6 1.8 4.1 0.1 4.7 0.4 4.7 2.2 0 2.1 -0.3 2.1 -6.9 1.5 -3.8 -0.4 -10.3 -1.5 -14.5 -2.5 -8.7 -2.1 -10.4 -1.4 -8.6 3.4 3.5 9.3 13.5 17.5 25.7 21.1 8.1 2.4 6.4 3.2 -1.9 0.9z"/>
  <path d="M79 125.1 c8.4 -2.2 12.8 -4.4 18.1 -8.9 7.3 -6.3 12.3 -16.2 8.7 -17.4 -0.7 -0.3 -4.3 0.3 -8 1.3 -3.6 1 -9.8 2.1 -13.7 2.5 -6.8 0.6 -7.1 0.6 -7.1 -1.5 0 -1.8 0.6 -2.1 4.3 -2.2 4.4 -0.1 11.4 -1.6 8.6 -1.8 -3 -0.2 -5.7 -4.7 -8.8 -14.4 -3.3 -10.3 -3.9 -15.7 -1.8 -15.7 0.7 0 2.6 4.4 4.4 10.3 3.4 10.9 6.2 15.7 9.3 15.7 1 0 6.3 -2.2 11.7 -5 10.2 -5.1 18.1 -11.1 21.5 -16.5 l2 -3 -0.5 6.3 c-0.7 8.4 -6.8 21 -13.4 27.4 -9.5 9.3 -18.9 17.5 -22.3 19.5 -4.2 2.5 -13.4 5.3 -16.9 5.2 -1.5 0 0.2 -0.8 3.9 -1.8z"/>
  <path d="M23 59 c0 -0.8 0.5 -2.2 1 -3 0.9 -1.3 1 -1.3 1 0 0 0.8 -0.5 2.2 -1 3 -0.9 1.3 -1 1.3 -1 0z"/>
 </g>
 <g fill="#ffd117">
  <path d="M56.4 96.5 c-0.8 -1.9 -0.3 -4.1 3.5 -14.1 1.6 -4.5 3.5 -11 4.1 -14.5 1.7 -10.5 1.9 -10.9 4 -10.9 1.9 0 2 0.7 2 11 l0 11 2.5 0 2.5 0 0 -11.5 c0 -10.6 0.1 -11.5 1.9 -11.5 1.6 0 2.1 1.4 3.5 8.8 1.7 9 6.2 24 7.7 25.6 1.3 1.4 1.1 5 -0.3 6.4 -0.8 0.8 -5.8 1.2 -16 1.2 -12.4 0 -15 -0.3 -15.4 -1.5z"/>
  <path d="M25.7 34.8 c3.2 -5.7 13.8 -15.3 21 -19.1 16.8 -8.8 33.2 -8.9 51 -0.2 7 3.4 17.7 12.7 20.3 17.4 1 1.9 0.8 2.1 -2.1 2.1 -2.4 0 -4.5 -1.2 -8.6 -5 -6.7 -6.2 -21.6 -13.7 -29.9 -15.1 -5 -0.9 -7.4 -0.8 -12.5 0.6 -7.6 1.9 -19.5 8.1 -26 13.6 -2.6 2.1 -5.4 3.9 -6.3 3.9 -1 0 -1.6 0.9 -1.6 2.5 0 2.2 -0.4 2.5 -3.6 2.5 l-3.5 0 1.8 -3.2z"/>
 </g>
 <g fill="#fc7b72">
  <path d="M118.5 62.3 c-1.1 -0.8 -4.6 -2.7 -7.8 -4.2 -5.6 -2.6 -5.7 -2.8 -3.9 -4.4 1.1 -1 3.6 -2 5.5 -2.4 3.1 -0.5 4 -0.1 6.7 2.5 2.9 2.9 3.8 6.4 2.2 8.9 -0.5 0.8 -1.2 0.7 -2.7 -0.4z"/>
  <path d="M23.6 61.3 c-1.1 -2.8 -0.6 -4.5 2.3 -7.4 3.5 -3.4 7.7 -3.8 11.2 -1 1.3 1.1 2.2 2.1 1.9 2.3 -0.3 0.1 -3.7 1.9 -7.7 4 -5.8 3 -7.3 3.4 -7.7 2.1z"/>
  <path d="M44 52.4 c0 -2.9 3 -7.1 5.9 -8.3 3.5 -1.5 6.4 -0.8 9.1 2.2 2.9 3.1 2.5 4.7 -1.2 4.7 -1.8 0 -5.7 0.7 -8.5 1.4 -4.6 1.2 -5.3 1.2 -5.3 0z"/>
  <path d="M95 52.2 c-3 -0.7 -6.8 -1.6 -8.3 -2 l-2.9 -0.7 2.2 -2.7 c4.1 -5.3 12.9 -3.1 14.6 3.7 0.3 1.4 0.5 2.7 0.3 2.9 -0.2 0.1 -2.9 -0.4 -5.9 -1.2z"/>
  <path d="M37.6 50.3 c-1.7 -0.9 -4.6 -1.3 -7.2 -1.1 -2.4 0.2 -4.4 0 -4.4 -0.4 0 -1.2 10.8 -1 13.1 0.2 1.5 0.8 1.9 0.7 1.9 -0.5 0 -0.8 0.4 -1.5 0.9 -1.5 0.5 0 1.1 -1 1.3 -2.2 0.2 -1.5 1.1 -2.4 2.6 -2.6 1.2 -0.2 2.2 -0.8 2.2 -1.3 0 -0.5 2.3 -0.9 5 -0.9 2.8 0 5 0.4 5 1 0 0.5 -1.3 0.7 -3 0.4 -4.4 -0.9 -8.9 1.4 -11.9 6.2 -2.7 4.1 -2.7 4.1 -5.5 2.7z"/>
  <path d="M102.1 48.2 c-1.1 -2 -3.2 -4.5 -4.8 -5.4 -2.1 -1.3 -2.4 -1.8 -1 -1.8 3 0 5.7 1.9 5.7 4 0 1.1 0.5 2 1 2 0.6 0 1 0.7 1 1.5 0 1.1 0.5 1.2 2.6 0.5 3 -1.2 12.4 -1.3 12.4 -0.2 0 0.4 -1.7 0.6 -3.8 0.4 -2.1 -0.2 -5.5 0.3 -7.5 1.2 l-3.7 1.5 -1.9 -3.7z"/>
  <path d="M61.2 44.9 c-1.7 -2.1 -1.9 -2.9 -0.9 -2.9 1.3 0 4.5 4.6 3.6 5.4 -0.2 0.2 -1.4 -1 -2.7 -2.5z"/>
 </g>
 <g fill="#fac032">
  <path d="M69.8 126.3 c1.2 -0.2 3.2 -0.2 4.5 0 1.2 0.2 0.2 0.4 -2.3 0.4 -2.5 0 -3.5 -0.2 -2.2 -0.4z"/>
  <path d="M85.5 123.3 c8 -3.3 15.2 -9.3 19.4 -16.3 1.1 -1.9 2.1 -3 2.1 -2.4 0 1.8 -5.5 8.8 -10 12.7 -4.3 3.6 -11.9 7.7 -14.2 7.6 -0.7 0 0.5 -0.7 2.7 -1.6z"/>
  <path d="M49.9 119.1 c-4.8 -3.4 -11.9 -11.6 -11.9 -13.7 0 -0.4 1.6 1.5 3.7 4.4 2.1 3 6.1 6.9 9.6 9.2 3.2 2.2 5.5 4 5 4 -0.5 0 -3.4 -1.7 -6.4 -3.9z"/>
  <path d="M59 102 c-8.9 -1.1 -21 -4.8 -23.6 -7.1 -1.1 -1.1 -2.4 -1.6 -2.9 -1.2 -0.4 0.5 -0.5 0.2 -0.1 -0.5 0.4 -0.7 -0.5 -2.5 -2.5 -4.5 -4.7 -4.7 -1.9 -4.6 9.2 0.4 12.6 5.5 14.1 5.8 16.7 2.4 2.4 -3 8.2 -20.1 8.2 -24 0 -1.3 0.5 -2.7 1 -3 1.7 -1 1.1 2.4 -2.5 15.9 -1.9 7.1 -3.2 13.2 -3 13.6 0.7 1.2 23.6 1.2 25 0 1.1 -0.9 0.9 -2.8 -1.2 -10.3 -3.9 -14.5 -4.3 -16 -4.2 -20.2 0.1 -3.4 0.3 -3 1.5 3 2 10.1 6.3 22.6 8.7 25.3 2.7 2.9 4.4 2.8 11.9 -0.7 15.4 -7.1 18.6 -7.6 13.3 -2.1 -1.6 1.7 -2.5 3 -2.1 3 0.4 0 -0.7 1.2 -2.4 2.7 -6.6 5.5 -34.1 9.5 -51 7.3z"/>
  <path d="M66.1 77.4 c1 -4.8 1.2 -18.4 0.1 -16.7 -0.4 0.7 -0.8 -1.2 -0.8 -4.2 -0.1 -3.5 -0.8 -6.6 -2.2 -8.9 l-2.1 -3.6 2.9 0 c2.7 0 3 0.3 3 3 0 1.7 0.5 3 1 3 2.5 0 0.6 27.4 -2.1 30.4 -0.4 0.5 -0.3 -0.9 0.2 -3z"/>
  <path d="M77.8 78.3 c-0.6 -1.6 -1.3 -8.5 -1.6 -15.5 -0.4 -12.7 -0.4 -12.8 1.8 -12.8 1.9 0 2.1 0.4 1.6 2.8 -1.3 5.4 -1.8 19.8 -0.8 24 1.1 4.8 0.7 5.5 -1 1.5z"/>
  <path d="M18.1 56.7 c-0.7 -1 -0.7 -2.5 0 -5.3 1.7 -5.8 7.8 -17.6 8.9 -16.9 0.5 0.3 0.7 -0.1 0.4 -0.9 -0.9 -2.4 11.3 -13.7 19.3 -17.9 16.8 -8.8 33.2 -8.9 51 -0.1 12.3 5.9 23.9 19.5 28.5 33.1 1.6 4.6 1.6 5.7 0.5 7.3 -1.3 1.8 -1.4 1.8 -3 -1 -1 -1.6 -3.1 -3.7 -4.7 -4.7 -3.5 -2 -3.8 -3.3 -1 -3.3 1.1 0 2 -0.4 2 -0.9 0 -2.5 -9.4 -14.2 -15.5 -19.4 -19.4 -16.3 -38.9 -17.6 -58.8 -4.1 -9.3 6.4 -21.7 21.5 -21.7 26.6 0 0.9 -1.1 3.3 -2.4 5.2 -1.9 2.8 -2.6 3.3 -3.5 2.3z m97.9 -25 c0 -0.2 -1.9 -2.1 -4.2 -4.2 l-4.3 -4 4 4.3 c3.6 3.9 4.5 4.7 4.5 3.9z m-65.6 -14.7 c10.4 -5.2 18.9 -6.8 28.6 -5.3 6.9 1.1 18.4 5.8 25.3 10.4 3.1 2 3.1 2 -0.3 -1.1 -11.5 -10.2 -32.5 -13.7 -48.5 -8.1 -6.7 2.4 -17.5 9.3 -22 14.2 -2.3 2.4 -1.6 2.1 2.8 -1.4 3.2 -2.6 9.6 -6.5 14.1 -8.7z"/>
  <path d="M102.1 48.1 c-1.1 -2 -3.1 -4.3 -4.5 -5.1 -3.6 -1.9 -3.2 -3 0.9 -3 3 0 3.5 0.3 3.5 2.4 0 2.4 2.8 3.6 8.6 3.6 4 0 2.7 2.4 -2.1 4.1 l-4.6 1.7 -1.8 -3.7z"/>
  <path d="M40 46.5 c0 -3.2 0.2 -3.5 3 -3.5 2.5 0 3 -0.4 3 -2.5 0 -2.4 0.2 -2.5 7 -2.5 6.7 0 7 0.1 7 2.4 0 2.2 -0.2 2.3 -4 1.3 -5 -1.4 -10 0.7 -12.6 5.2 -2.4 4 -3.4 3.9 -3.4 -0.4z"/>
  <path d="M50.8 44.3 c1.2 -0.2 3.2 -0.2 4.5 0 1.2 0.2 0.2 0.4 -2.3 0.4 -2.5 0 -3.5 -0.2 -2.2 -0.4z"/>
 </g>
 <g fill="#fddd32">
  <path d="M66.4 81.4 c-0.8 -0.3 -0.9 -1.6 -0.3 -4.2 1 -4.5 1 -14.1 0 -20.4 -0.7 -4.6 -0.7 -4.8 1.5 -4.8 1.5 0 2.8 1 3.8 2.8 l1.4 2.7 0.7 -2.7 c0.4 -1.6 1.1 -2.8 1.6 -2.8 0.5 0 0.9 -0.9 0.9 -2 0 -1.4 0.7 -2 2.3 -2 l2.4 0 -1.3 6.3 c-1.5 7.1 -1.7 17.5 -0.5 22.9 0.7 2.9 0.5 3.8 -0.6 4.2 -1.7 0.7 -10.3 0.7 -11.9 0z"/>
  <path d="M22 49.6 c0 -1.9 0.5 -3.8 1 -4.1 0.6 -0.3 1 -1.5 1 -2.6 0 -1.5 0.7 -1.9 3.3 -1.9 4 0 5.7 1.5 5.7 5.2 0 2.4 -0.4 2.8 -2.9 2.8 -1.5 0 -4 0.9 -5.5 2.1 l-2.6 2 0 -3.5z"/>
  <path d="M110.5 52 c1.1 -0.5 2.7 -0.9 3.5 -0.9 0.9 0 0.8 0.4 -0.5 0.9 -1.1 0.5 -2.7 0.9 -3.5 0.9 -0.9 0 -0.8 -0.4 0.5 -0.9z"/>
  <path d="M120.1 50.9 c-2.8 -2.3 -9 -2.5 -13.1 -0.4 -2.5 1.3 -2.9 1.3 -3.4 -0.1 -0.7 -1.8 1.1 -3.8 4.4 -4.9 1.3 -0.4 3.3 -1.6 4.4 -2.6 2.7 -2.5 8.6 -2.6 8.6 -0.1 0 1 0.5 2.3 1.1 2.9 0.6 0.6 0.9 2.4 0.7 4.1 l-0.3 3 -2.4 -1.9z"/>
  <path d="M39.3 51.3 c-0.7 -0.3 -1.3 -1.6 -1.3 -2.9 0 -1.9 0.5 -2.4 2.5 -2.4 1.4 0 2.5 0.3 2.5 0.8 -0.1 1.8 -2.6 4.9 -3.7 4.5z"/>
  <path d="M35 27 c7.2 -6.5 21.5 -13.8 30.2 -15.2 9.9 -1.7 19 0 30.3 5.6 4.9 2.4 10.8 6 13 8 l4 3.5 -3.8 0.1 c-2.4 0 -4 -0.5 -4.3 -1.5 -0.4 -0.8 -1.2 -1.5 -1.9 -1.5 -0.7 0 -1.5 -0.3 -1.7 -0.8 -0.5 -1.2 -13.9 -7 -18.8 -8.1 -6.2 -1.4 -13.6 -1.3 -19.5 0.3 -6.8 1.8 -15.6 5.6 -17.9 7.8 -1.1 1 -2.7 1.8 -3.6 1.8 -0.8 0 -2 1 -2.5 2.3 -0.8 1.7 -2 2.3 -5 2.5 l-4 0.2 5.5 -5z"/>
 </g>
 <g fill="#fbd251">
  <path d="M64.3 95.2 c-0.7 -0.4 1.8 -0.6 5.5 -0.4 9.6 0.5 10.8 1 2.7 1.1 -3.8 0 -7.6 -0.3 -8.2 -0.7z"/>
  <path d="M24 56.2 c0 -1.6 3.5 -4.2 6.6 -4.8 1.9 -0.3 3.6 0 4.9 1.1 l2 1.7 -2 -0.7 c-1.1 -0.4 -2.7 -0.9 -3.6 -1.2 -0.9 -0.2 -3 0.8 -4.7 2.2 -1.8 1.5 -3.2 2.3 -3.2 1.7z"/>
  <path d="M118.9 55.4 c-0.8 -1 -2.7 -2.3 -4.4 -3.1 l-3 -1.4 3 0.6 c3.1 0.6 7.3 4 6.3 5 -0.3 0.3 -1.1 -0.2 -1.9 -1.1z"/>
  <path d="M65.4 52.5 c-0.7 -1.9 -1.4 -3.9 -1.4 -4.4 0 -0.5 -1.6 -2.3 -3.5 -4 -1.9 -1.7 -3.5 -3.3 -3.5 -3.6 0 -0.3 1.5 -0.5 3.3 -0.5 3.6 0 5.7 1.5 5.7 4.1 0 1 0.5 1.9 1.1 2.1 0.6 0.2 1.3 2.5 1.6 5.1 0.7 5.7 -1.1 6.4 -3.3 1.2z"/>
  <path d="M76 52.5 c0 -2.4 0.5 -3.5 1.5 -3.5 1 0 1.5 -1 1.5 -3.3 0 -3.7 1.5 -5.7 4.2 -5.7 1 0 1.8 -0.4 1.8 -1 0 -0.6 3 -1 7 -1 6.8 0 7 0.1 7 2.5 0 2.1 0.5 2.5 3 2.5 2.3 0 3 0.4 3 2 0 1.3 0.7 2 2 2 1.1 0 2 -0.4 2 -1 0 -0.5 1.1 -1 2.4 -1 1.9 0 2.5 -0.6 2.9 -3.2 0.3 -2 -0.1 -3.9 -0.9 -4.9 -0.8 -0.8 -1.4 -3.1 -1.4 -4.9 l0 -3.4 3.4 3.3 c1.9 1.9 4.8 6 6.5 9.1 2.6 4.9 3 6.4 2.3 9.6 l-0.8 3.7 -3.2 -4.1 c-1.9 -2.3 -3 -4.7 -2.7 -5.3 0.4 -0.6 -0.2 -0.5 -1.4 0.2 -1.4 0.9 -1.7 1.6 -0.8 2.1 0.8 0.5 0.7 0.9 -0.5 1.3 -1 0.4 -2.1 0.4 -2.6 0.1 -0.5 -0.3 -2.1 0.2 -3.6 1 -3.9 1.9 -4 1.9 -6.9 -2.4 -4.8 -7.3 -13 -8 -18.6 -1.6 -1.7 1.9 -3.2 3.9 -3.2 4.4 -0.1 0.6 -0.3 1.5 -0.4 2 -0.1 0.6 -0.3 1.4 -0.4 1.9 0 0.5 -0.8 1.1 -1.6 1.5 -1.2 0.4 -1.5 -0.3 -1.5 -2.9z"/>
  <path d="M20.6 50.9 c-0.9 -4.6 3.1 -12.5 9.7 -19.2 5.2 -5.2 5.2 -5.2 5.5 -2.5 0.2 1.9 -0.6 4 -2.8 6.6 -3.7 4.6 -3.5 9.2 0.5 9.2 4 0 8.7 2.1 8.1 3.7 -0.3 0.8 -0.6 1.9 -0.6 2.4 0 0.5 -1.3 0.3 -3 -0.6 -1.6 -0.8 -4.3 -1.5 -6.1 -1.5 -2.3 0 -3 -0.4 -2.6 -1.4 0.3 -0.8 -0.1 -2 -0.9 -2.7 -1.2 -1 -1.3 -0.9 -0.9 0.3 0.4 1 -0.7 3 -2.8 5.3 l-3.4 3.7 -0.7 -3.3z"/>
  <path d="M44 42 c0 -2.8 0.3 -3 3.5 -3 4.4 0 4.4 0.9 0 3.8 l-3.5 2.2 0 -3z"/>
  <path d="M90.3 44.3 c0.9 -0.2 2.5 -0.2 3.5 0 0.9 0.3 0.1 0.5 -1.8 0.5 -1.9 0 -2.7 -0.2 -1.7 -0.5z"/>
 </g>
 <g fill="#ffa49d">
  <path d="M119.2 59.7 c-0.7 -0.8 -3.5 -2.3 -6.3 -3.3 -5.5 -2 -6.1 -3 -2.3 -4.4 5.2 -2 10.8 1.6 10.2 6.6 -0.3 2.4 -0.5 2.5 -1.6 1.1z"/>
  <path d="M24 57.2 c0 -4.1 7 -7.3 11.1 -5.2 2.2 1.2 2 1.4 -4.1 4.1 -3.4 1.6 -6.4 2.9 -6.6 2.9 -0.2 0 -0.4 -0.8 -0.4 -1.8z"/>
  <path d="M36.5 49.5 c-1.6 -0.8 -2.3 -1.4 -1.4 -1.5 0.8 0 2.4 0.7 3.5 1.5 2.3 1.8 1.8 1.8 -2.1 0z"/>
  <path d="M45 49.7 c0 -0.8 1 -2.3 2.3 -3.5 2.8 -2.6 8.8 -3 10.7 -0.7 1.6 1.9 1.8 1.8 -5.7 3.8 -7.5 2 -7.3 2 -7.3 0.4z"/>
  <path d="M92 48.8 c-5.9 -1.8 -6.3 -2.1 -4.5 -3.4 1 -0.8 3.1 -1.4 4.6 -1.4 3 0 7.9 3.4 7.9 5.6 0 1.7 0.1 1.7 -8 -0.8z"/>
  <path d="M59 42.5 c-1.7 -1 -2 -1.4 -0.9 -1.5 0.9 0 2.2 0.7 2.9 1.5 1.5 1.8 1.2 1.8 -2 0z"/>
 </g>
 <g fill="#feea5b">
  <path d="M70.3 61.8 c-0.5 -0.7 -1.8 -3.3 -2.9 -5.7 -1 -2.4 -2.9 -6.4 -4.1 -8.9 l-2.2 -4.4 4.7 0.7 c6.3 0.9 7.9 0.9 13.5 0 l4.7 -0.8 -2.5 4.4 c-1.3 2.4 -2.5 5.2 -2.5 6.2 0 0.9 -0.4 1.7 -0.8 1.7 -0.5 0 -1.5 1.8 -2.2 4 -1.3 4.1 -3.8 5.3 -5.7 2.8z"/>
  <path d="M36.5 49.5 c-1.6 -0.8 -4.1 -1.4 -5.4 -1.5 -1.3 0 -2.1 -0.3 -1.8 -0.7 0.4 -0.3 0 -1.5 -1 -2.5 -1.7 -2 -2 -7.5 -0.4 -9.1 0.6 -0.6 3.1 -0.1 7.3 1.6 3.5 1.4 7.8 2.9 9.6 3.2 l3.2 0.7 -3.5 4.1 c-1.9 2.2 -3.5 4.4 -3.5 4.9 0 1.1 -0.9 0.9 -4.5 -0.7z"/>
  <path d="M102.2 47.7 c-1.1 -1.9 -3.4 -4.3 -5.1 -5.3 -4.5 -2.7 -3.8 -3.8 2 -3.1 4.1 0.5 6 0.2 10.2 -1.8 2.9 -1.3 4.4 -2.4 3.5 -2.5 -1.1 0 -1.8 -0.8 -1.8 -2 0 -1.4 -0.7 -2 -2.1 -2 -1.2 0 -2.3 -0.8 -2.6 -2 -0.3 -1.1 -1.4 -2 -2.4 -2 -1.1 0 -1.9 -0.4 -1.9 -1 0 -0.5 -0.7 -1 -1.5 -1 -0.9 0 -1.5 -0.9 -1.5 -2.5 0 -1.4 0.4 -2.5 0.9 -2.5 1.9 0 13.5 9.6 16.2 13.5 2.6 3.6 2.8 4.4 1.9 7.7 -0.6 2.1 -1.8 4.2 -2.8 4.7 -1.4 0.8 -1.4 1.1 -0.2 1.1 0.8 0.1 -0.5 0.7 -3 1.4 -2.5 0.7 -5.2 1.6 -6.1 2 -1.2 0.5 -2.2 -0.2 -3.7 -2.7z"/>
  <path d="M97.4 47.6 c-0.3 -0.9 -1.2 -1.6 -2 -1.6 -0.8 0 -1.4 -0.5 -1.4 -1 0 -0.7 0.6 -0.7 1.9 0 2.3 1.2 3.5 2.9 2.7 3.7 -0.3 0.3 -0.8 -0.2 -1.2 -1.1z"/>
  <path d="M38 24.9 c6.6 -5.7 21.8 -11.9 29.3 -11.9 1.9 0 2.7 0.5 2.7 1.8 0 1.3 -1.3 2 -5.9 2.9 -5.8 1.1 -18.3 6 -18.9 7.5 -0.2 0.4 -1 0.8 -1.8 0.8 -0.8 0 -1.4 0.5 -1.4 1 0 0.6 -1.7 1 -3.7 1 l-3.8 -0.1 3.5 -3z"/>
  <path d="M86.5 18.9 c-2.7 -1 -6.5 -1.8 -8.2 -1.9 -2.7 0 -3.3 -0.4 -3.3 -2.1 0 -2 0.3 -2.1 5.6 -1.5 6.5 0.7 16.6 4.5 17.2 6.4 0.5 1.8 -5.2 1.3 -11.3 -0.9z"/>
 </g>
 <g fill="#fff281">
  <path d="M66.5 47.1 c-1.2 -0.5 -3.8 -2.1 -5.9 -3.5 -4.4 -3 -10 -3.4 -13.4 -1.1 -1.5 1.2 -3.3 1.4 -5.9 0.9 -5.2 -0.9 -14.3 -5 -14.3 -6.4 0 -0.7 2.8 -4 6.2 -7.4 7.6 -7.6 17.9 -12.9 29.3 -15.3 19 -3.9 41.6 4.1 53.3 18.9 l3.3 4.2 -5.9 2.7 c-8.2 3.8 -12.5 4.5 -15.4 2.5 -4.2 -2.9 -10.5 -1.9 -15.5 2.6 -2.4 2.2 -12.4 3.4 -15.8 1.9z m22.5 -16.2 c13.9 -2.8 14 -2.8 14 -3.9 0 -0.6 -0.7 -1 -1.5 -1 -0.8 0 -1.5 -0.4 -1.5 -0.9 0 -0.5 -1.1 -1.2 -2.4 -1.5 -1.4 -0.3 -3.1 -1.2 -3.8 -1.9 -1.9 -1.8 -15.4 -4.7 -22.1 -4.7 -6 0 -21.1 4.3 -23.5 6.7 -0.7 0.7 -2 1.3 -2.8 1.3 -0.8 0 -1.4 0.5 -1.4 1 0 0.6 -0.8 1 -1.7 1 -3.9 0.1 1.4 1.7 11.2 3.5 5.5 1 11.6 2.2 13.5 2.6 4.2 0.9 9.5 0.4 22 -2.2z"/>
  <path d="M48.4 45.5 c1.1 -0.8 2.4 -1.5 3 -1.5 0.5 0 0.1 0.7 -1 1.5 -1 0.8 -2.3 1.4 -2.9 1.4 -0.5 0 -0.1 -0.6 0.9 -1.4z"/>
  <path d="M94.6 45.5 c-1.1 -0.8 -1.5 -1.5 -1 -1.5 0.6 0 1.9 0.7 3 1.5 1 0.8 1.5 1.4 0.9 1.4 -0.5 0 -1.9 -0.6 -2.9 -1.4z"/>
 </g>
 <g fill="#ffcfc9">
  <path d="M115 55.1 c-4.5 -2.1 -5.1 -2.6 -3.1 -2.9 3.6 -0.6 6.9 0.6 8.2 2.9 0.6 1.1 0.9 2.2 0.7 2.3 -0.2 0.2 -2.8 -0.9 -5.8 -2.3z"/>
  <path d="M25 55.1 c0 -1.6 3.5 -3.1 7.2 -3 l3.3 0.1 -3 1.3 c-5.1 2.2 -7.5 2.7 -7.5 1.6z"/>
  <path d="M46 47.9 c0 -1.5 4.4 -3.9 7.2 -3.9 4.8 0 3.9 1.6 -1.7 3.2 -3 0.8 -5.5 1.2 -5.5 0.7z"/>
  <path d="M93.1 47 c-3.8 -1.2 -4.9 -1.9 -3.7 -2.3 3 -1.2 5.3 -0.8 7.7 1.2 3.4 2.7 2.2 3 -4 1.1z"/>
 </g>
 <g fill="#fffab2">
  <path d="M67 36.7 c-0.3 -0.3 -2.6 -0.8 -5.2 -1.1 -2.6 -0.4 -9.1 -1.6 -14.5 -2.7 -5.4 -1.2 -10.8 -2.1 -12 -2.1 -1.3 0 -2.3 -0.2 -2.3 -0.4 0 -0.8 5 -5 9.7 -8 5.5 -3.6 18.5 -8.4 22.7 -8.4 1.9 0 2.6 0.5 2.6 2 0 1.5 -0.7 2 -2.4 2 -4.6 0 -3.6 1.7 1.7 2.8 3.6 0.7 6.8 0.7 10 0 5 -1 6.4 -2.8 2.2 -2.8 -1.8 0 -2.5 -0.5 -2.5 -2 0 -1.4 0.7 -2 2.1 -2 4.1 0 14.5 3.2 20.2 6.3 5.7 3 15.8 11.4 12.6 10.4 -0.9 -0.3 -7.9 0.8 -15.5 2.4 -13.4 2.8 -28.4 4.7 -29.4 3.6z"/>
 </g>
 <g fill="#fffae2">
  <path d="M115.5 53.5 c-2.5 -1.2 -2.6 -1.4 -0.5 -0.9 1.4 0.4 2.9 1 3.5 1.5 1.2 1.2 0.5 1.1 -3 -0.6z"/>
  <path d="M48 46.4 c0 -0.7 5.2 -2.5 5.7 -2 0.2 0.2 -1 0.8 -2.6 1.4 -1.7 0.6 -3.1 0.9 -3.1 0.6z"/>
  <path d="M63.5 23.5 c-2.7 -0.8 -7.2 -2 -9.8 -2.8 l-4.8 -1.3 2.7 -1.3 c9.4 -4.3 23.1 -5.1 34.8 -2.1 9.3 2.4 12.6 3.9 8.1 3.8 -1.6 0 -5.4 0.9 -8.4 2.1 -7 2.8 -16.1 3.5 -22.6 1.6z"/>
 </g>
</svg>