<svg id="Layer_1" data-name="Layer 1" xmlns="http://www.w3.org/2000/svg" viewBox="0 0 1948.37 900.1"><path d="M475,116A384.12,384.12,0,0,1,624.45,853.85a384.12,384.12,0,0,1-298.9-707.7A381.46,381.46,0,0,1,475,116m0-66C226.47,50,25,251.47,25,500S226.47,950,475,950,925,748.53,925,500,723.53,50,475,50Z" transform="translate(-25 -49.9)"/><path d="M205.44,567.58q270,67.83,540,0A9.31,9.31,0,0,1,757,576.77c-2.12,127.32-74.58,210.06-222.58,244.92A232.85,232.85,0,0,1,425,821c-150.87-37.41-229.9-117.65-231.13-244.28A9.31,9.31,0,0,1,205.44,567.58Z" transform="translate(-25 -49.9)"/><ellipse cx="585.94" cy="313.6" rx="60.94" ry="131.5"/><ellipse cx="314.06" cy="313.6" rx="60.94" ry="131.5"/><path d="M1529.75,949.15q-95.93,0-177.45-33.26T1210.2,823q-60.56-59.65-94.42-140.58t-33.86-176.27q0-101.3,33-184.93t93.22-144.49q60.24-60.84,143-93.81t181.66-33q113.3,0,198.13,36.29t140,98.31q55.14,62.06,80.62,139.39A436.74,436.74,0,0,1,1972.78,484q-6,113.3-53.66,170.86t-132.79,57.55q-55.17,0-95.92-25.78T1635.86,614l28.78,3q-21,42.59-62.66,61.76A204.85,204.85,0,0,1,1515.36,698q-54.57,0-95.63-23.68a167.39,167.39,0,0,1-64.14-65.65q-23.08-42-23.07-97.11,0-57.57,24-99.52a165.77,165.77,0,0,1,66-64.75q42-22.77,94.72-22.78,38.94,0,80.62,16.19t63.86,52.75l-23.39,26.37V341.26h63.55l-.6,194.85q0,44.37,20.68,72.23t68.65,27.88q32.37,0,54.25-18t33.88-50.65q12-32.69,13.78-77,3.6-91.12-23.38-159.46t-76.75-114.21q-49.75-45.84-115.39-68.64t-140-22.78q-89.94,0-159.77,30t-118.11,82.73a355.53,355.53,0,0,0-72.83,121.39q-24.59,68.65-23.37,146,.59,79.74,29.06,147.19t78.85,116.89q50.34,49.46,117.5,76.73t145.67,27.28a409.48,409.48,0,0,0,102.22-13.18q51.25-13.2,91.42-36.58L1755.77,891a441.5,441.5,0,0,1-109.72,43.77A478.44,478.44,0,0,1,1529.75,949.15Zm-9.59-327.92q46.75,0,76.43-27t29.68-83.34q0-55.16-28.49-83.33T1522,399.42q-54,0-82.43,29.37t-28.47,82.13q0,53.37,29.37,81.84T1520.16,621.23Z" transform="translate(-25 -49.9)"/></svg>