<svg id="Layer_1" data-name="Layer 1" xmlns="http://www.w3.org/2000/svg" viewBox="0 0 6128.37 900.1"><defs><style>.cls-1{fill:#ffff0f;}</style></defs><path class="cls-1" d="M2675,125a382.61,382.61,0,1,1-149.45,30.15A381.46,381.46,0,0,1,2675,125m0-66c-248.53,0-450,201.47-450,450s201.47,450,450,450,450-201.47,450-450S2923.53,59,2675,59Z" transform="translate(-135 -58.9)"/><path class="cls-1" d="M2405.44,576.58q270,67.83,540,0a9.31,9.31,0,0,1,11.57,9.17c-2.12,127.32-74.58,210.06-222.58,244.92A232.85,232.85,0,0,1,2625,830c-150.87-37.41-229.9-117.65-231.13-244.28A9.31,9.31,0,0,1,2405.44,576.58Z" transform="translate(-135 -58.9)"/><ellipse class="cls-1" cx="2675.94" cy="313.6" rx="60.94" ry="131.5"/><ellipse class="cls-1" cx="2404.06" cy="313.6" rx="60.94" ry="131.5"/><path class="cls-1" d="M3729.75,958.15q-95.92,0-177.45-33.26T3410.2,832q-60.55-59.65-94.42-140.58t-33.86-176.27q0-101.3,33-184.93t93.22-144.49q60.24-60.84,143-93.81t181.66-33q113.3,0,198.13,36.29t140,98.31q55.14,62.06,80.62,139.39A436.74,436.74,0,0,1,4172.78,493q-6,113.3-53.66,170.86t-132.79,57.55q-55.17,0-95.92-25.78T3835.86,623l28.78,3q-21,42.59-62.66,61.76A204.85,204.85,0,0,1,3715.36,707q-54.57,0-95.63-23.68a167.39,167.39,0,0,1-64.14-65.65q-23.09-42-23.07-97.11,0-57.57,24-99.52a165.77,165.77,0,0,1,66-64.75q42-22.77,94.72-22.78,38.94,0,80.62,16.19t63.86,52.75l-23.39,26.37V350.26h63.55l-.6,194.85q0,44.37,20.68,72.23t68.65,27.88q32.37,0,54.25-18t33.88-50.65q12-32.69,13.78-77,3.6-91.12-23.38-159.46t-76.75-114.21q-49.76-45.84-115.39-68.64t-140-22.78q-89.94,0-159.77,30t-118.11,82.73a355.53,355.53,0,0,0-72.83,121.39q-24.58,68.65-23.37,146,.58,79.74,29.06,147.19t78.85,116.89q50.34,49.46,117.5,76.73t145.67,27.28a409.48,409.48,0,0,0,102.22-13.18q51.26-13.2,91.42-36.58L3955.77,900a441.5,441.5,0,0,1-109.72,43.77A478.44,478.44,0,0,1,3729.75,958.15Zm-9.59-327.92q46.76,0,76.43-27t29.68-83.34q0-55.15-28.49-83.33T3722,408.42q-54,0-82.43,29.37t-28.47,82.13q0,53.37,29.37,81.84T3720.16,630.23Z" transform="translate(-135 -58.9)"/><path class="cls-1" d="M4765,125a382.61,382.61,0,1,1-149.45,30.15A381.46,381.46,0,0,1,4765,125m0-66c-248.53,0-450,201.47-450,450s201.47,450,450,450,450-201.47,450-450S5013.53,59,4765,59Z" transform="translate(-135 -58.9)"/><path class="cls-1" d="M4495.44,576.58q270,67.83,540,0a9.31,9.31,0,0,1,11.57,9.17c-2.12,127.32-74.58,210.06-222.58,244.92A232.85,232.85,0,0,1,4715,830c-150.87-37.41-229.9-117.65-231.13-244.28A9.31,9.31,0,0,1,4495.44,576.58Z" transform="translate(-135 -58.9)"/><ellipse class="cls-1" cx="4765.94" cy="313.6" rx="60.94" ry="131.5"/><ellipse class="cls-1" cx="4494.06" cy="313.6" rx="60.94" ry="131.5"/><path class="cls-1" d="M5819.75,958.15q-95.92,0-177.45-33.26T5500.2,832q-60.55-59.65-94.42-140.58t-33.86-176.27q0-101.3,33-184.93t93.22-144.49q60.24-60.84,143-93.81t181.66-33q113.3,0,198.13,36.29t140,98.31q55.14,62.06,80.62,139.39A436.74,436.74,0,0,1,6262.78,493q-6,113.3-53.66,170.86t-132.79,57.55q-55.17,0-95.92-25.78T5925.86,623l28.78,3q-21,42.59-62.66,61.76A204.85,204.85,0,0,1,5805.36,707q-54.57,0-95.63-23.68a167.39,167.39,0,0,1-64.14-65.65q-23.09-42-23.07-97.11,0-57.57,24-99.52a165.77,165.77,0,0,1,66-64.75q42-22.77,94.72-22.78,38.94,0,80.62,16.19t63.86,52.75l-23.39,26.37V350.26h63.55l-.6,194.85q0,44.37,20.68,72.23t68.65,27.88q32.37,0,54.25-18t33.88-50.65q12-32.69,13.78-77,3.6-91.12-23.38-159.46t-76.75-114.21q-49.76-45.84-115.39-68.64t-140-22.78q-89.94,0-159.77,30t-118.11,82.73a355.53,355.53,0,0,0-72.83,121.39q-24.58,68.65-23.37,146,.59,79.74,29.06,147.19t78.85,116.89q50.34,49.46,117.5,76.73t145.67,27.28a409.48,409.48,0,0,0,102.22-13.18q51.26-13.2,91.42-36.58L6045.77,900a441.5,441.5,0,0,1-109.72,43.77A478.44,478.44,0,0,1,5819.75,958.15Zm-9.59-327.92q46.76,0,76.43-27t29.68-83.34q0-55.15-28.49-83.33T5812,408.42q-54,0-82.43,29.37t-28.47,82.13q0,53.37,29.37,81.84T5810.16,630.23Z" transform="translate(-135 -58.9)"/><path class="cls-1" d="M585,125a382.61,382.61,0,1,1-149.45,30.15A381.46,381.46,0,0,1,585,125m0-66C336.47,59,135,260.47,135,509S336.47,959,585,959s450-201.47,450-450S833.53,59,585,59Z" transform="translate(-135 -58.9)"/><path class="cls-1" d="M315.44,576.58q270,67.83,540,0A9.31,9.31,0,0,1,867,585.77c-2.12,127.32-74.58,210.06-222.58,244.92A232.85,232.85,0,0,1,535,830c-150.87-37.41-229.9-117.65-231.13-244.28A9.31,9.31,0,0,1,315.44,576.58Z" transform="translate(-135 -58.9)"/><ellipse class="cls-1" cx="585.94" cy="313.6" rx="60.94" ry="131.5"/><ellipse class="cls-1" cx="314.06" cy="313.6" rx="60.94" ry="131.5"/><path class="cls-1" d="M1639.75,958.15q-95.93,0-177.45-33.26T1320.2,832q-60.56-59.65-94.42-140.58t-33.86-176.27q0-101.3,33-184.93t93.22-144.49q60.24-60.84,143-93.81t181.66-33q113.3,0,198.13,36.29t140,98.31q55.14,62.06,80.62,139.39A436.74,436.74,0,0,1,2082.78,493q-6,113.3-53.66,170.86t-132.79,57.55q-55.17,0-95.92-25.78T1745.86,623l28.78,3q-21,42.59-62.66,61.76A204.85,204.85,0,0,1,1625.36,707q-54.57,0-95.63-23.68a167.39,167.39,0,0,1-64.14-65.65q-23.08-42-23.07-97.11,0-57.57,24-99.52a165.77,165.77,0,0,1,66-64.75q42-22.77,94.72-22.78,38.94,0,80.62,16.19t63.86,52.75l-23.39,26.37V350.26h63.55l-.6,194.85q0,44.37,20.68,72.23t68.65,27.88q32.37,0,54.25-18t33.88-50.65q12-32.69,13.78-77,3.6-91.12-23.38-159.46t-76.75-114.21q-49.75-45.84-115.39-68.64t-140-22.78q-89.94,0-159.77,30t-118.11,82.73a355.53,355.53,0,0,0-72.83,121.39q-24.59,68.65-23.37,146,.59,79.74,29.06,147.19t78.85,116.89q50.34,49.46,117.5,76.73t145.67,27.28a409.48,409.48,0,0,0,102.22-13.18q51.25-13.2,91.42-36.58L1865.77,900a441.5,441.5,0,0,1-109.72,43.77A478.44,478.44,0,0,1,1639.75,958.15Zm-9.59-327.92q46.75,0,76.43-27t29.68-83.34q0-55.15-28.49-83.33T1632,408.42q-54,0-82.43,29.37t-28.47,82.13q0,53.37,29.37,81.84T1630.16,630.23Z" transform="translate(-135 -58.9)"/></svg>