<svg id="Layer_1" data-name="Layer 1" xmlns="http://www.w3.org/2000/svg" viewBox="0 0 32.4 31.6"><defs><style>.cls-1{fill:#181616;fill-rule:evenodd;}</style></defs><path class="cls-1" d="M16.29.09a16.2,16.2,0,0,0-5.12,31.57c.81.15,1.1-.35,1.1-.78s0-1.4,0-2.76C7.75,29.1,6.8,26,6.8,26A4.31,4.31,0,0,0,5,23.58c-1.47-1,.11-1,.11-1a3.4,3.4,0,0,1,2.48,1.67,3.44,3.44,0,0,0,4.71,1.34,3.48,3.48,0,0,1,1-2.16C9.74,23,6,21.65,6,15.44a6.27,6.27,0,0,1,1.67-4.35,5.8,5.8,0,0,1,.16-4.28s1.36-.44,4.45,1.66a15.26,15.26,0,0,1,8.12,0c3.09-2.1,4.45-1.66,4.45-1.66A5.85,5.85,0,0,1,25,11.09a6.26,6.26,0,0,1,1.66,4.35c0,6.22-3.78,7.59-7.39,8a3.87,3.87,0,0,1,1.1,3c0,2.17,0,3.92,0,4.45s.29.94,1.11.78A16.2,16.2,0,0,0,16.29.09Z" transform="translate(-0.09 -0.09)"/></svg>