<svg version="1.2" baseProfile="tiny-ps" xmlns="http://www.w3.org/2000/svg" viewBox="0 0 130 130" width="130" height="130">
	<title>instagram-svg</title>
	<defs>
		<radialGradient id="grd1" gradientUnits="userSpaceOnUse"  cx="34.537" cy="140.001" r="128.829">
			<stop offset="0" stop-color="#ffdd55"  />
			<stop offset="0.1" stop-color="#ffdd55"  />
			<stop offset="0.5" stop-color="#ff543e"  />
			<stop offset="1" stop-color="#c837ab"  />
		</radialGradient>
		<radialGradient id="grd2" gradientUnits="userSpaceOnUse"  cx="-21.78" cy="9.364" r="57.588">
			<stop offset="0" stop-color="#3771c8"  />
			<stop offset="0.128" stop-color="#3771c8"  />
			<stop offset="1" stop-color="#6600ff" stop-opacity="0" />
		</radialGradient>
	</defs>
	<style>
		tspan { white-space:pre }
		.shp0 { fill: url(#grd1) } 
		.shp1 { fill: url(#grd2) } 
		.shp2 { fill: #ffffff } 
	</style>
	<path id="Layer copy" class="shp0" d="M65.03 0C37.89 0 29.95 0.03 28.41 0.16C22.84 0.62 19.37 1.5 15.6 3.38C12.69 4.82 10.39 6.5 8.13 8.84C4 13.13 1.5 18.39 0.6 24.66C0.16 27.7 0.03 28.32 0 43.84C-0.01 49.02 0 55.83 0 64.97C0 92.09 0.03 100.02 0.16 101.56C0.61 106.98 1.46 110.39 3.26 114.12C6.7 121.26 13.27 126.62 21.01 128.62C23.69 129.31 26.65 129.69 30.45 129.87C32.06 129.94 48.47 129.99 64.89 129.99C81.31 129.99 97.73 129.97 99.3 129.89C103.7 129.68 106.26 129.34 109.08 128.61C111 128.12 112.85 127.42 114.61 126.53C116.38 125.64 118.04 124.56 119.56 123.31C121.09 122.05 122.48 120.64 123.7 119.09C124.93 117.54 125.98 115.86 126.83 114.08C128.6 110.44 129.49 106.9 129.9 101.76C129.99 100.64 130.02 82.78 130.02 64.95C130.02 47.12 129.98 29.29 129.9 28.17C129.49 22.95 128.59 19.44 126.77 15.73C125.27 12.69 123.61 10.43 121.2 8.11C116.9 4 111.64 1.5 105.38 0.6C102.34 0.16 101.73 0.03 86.19 0L65.03 0Z" />
	<path id="Layer copy 2" class="shp1" d="M65.03 0C37.89 0 29.95 0.03 28.41 0.16C22.84 0.62 19.37 1.5 15.6 3.38C12.69 4.82 10.39 6.5 8.13 8.84C4 13.13 1.5 18.39 0.6 24.66C0.16 27.7 0.03 28.32 0 43.84C-0.01 49.02 0 55.83 0 64.97C0 92.09 0.03 100.02 0.16 101.56C0.61 106.98 1.46 110.39 3.26 114.12C6.7 121.26 13.27 126.62 21.01 128.62C23.69 129.31 26.65 129.69 30.45 129.87C32.06 129.94 48.47 129.99 64.89 129.99C81.31 129.99 97.73 129.97 99.3 129.89C103.7 129.68 106.26 129.34 109.08 128.61C111 128.12 112.85 127.42 114.61 126.53C116.38 125.64 118.04 124.56 119.56 123.31C121.09 122.05 122.48 120.64 123.7 119.09C124.93 117.54 125.98 115.86 126.83 114.08C128.6 110.44 129.49 106.9 129.9 101.76C129.99 100.64 130.02 82.78 130.02 64.95C130.02 47.12 129.98 29.29 129.9 28.17C129.49 22.95 128.59 19.44 126.77 15.73C125.27 12.69 123.61 10.43 121.2 8.11C116.9 4 111.64 1.5 105.38 0.6C102.34 0.16 101.73 0.03 86.19 0L65.03 0Z" />
	<path id="Layer copy 3" fill-rule="evenodd" class="shp2" d="M65 17C78.03 17 79.66 17.06 84.78 17.29C89.89 17.52 93.38 18.33 96.44 19.52C99.6 20.75 102.27 22.39 104.94 25.06C107.61 27.72 109.25 30.4 110.48 33.56C111.66 36.61 112.47 40.1 112.71 45.21C112.94 50.33 113 51.96 113 65C113 78.04 112.94 79.67 112.71 84.79C112.47 89.9 111.66 93.39 110.48 96.44C109.25 99.59 107.61 102.27 104.94 104.94C102.27 107.61 99.6 109.25 96.44 110.48C93.39 111.67 89.9 112.48 84.79 112.71C79.67 112.94 78.03 113 65 113C51.96 113 50.33 112.94 45.21 112.71C40.1 112.48 36.61 111.67 33.56 110.48C30.4 109.25 27.72 107.61 25.06 104.94C22.39 102.27 20.75 99.59 19.52 96.44C18.33 93.39 17.52 89.9 17.29 84.79C17.06 79.67 17 78.04 17 65C17 51.96 17.06 50.33 17.29 45.21C17.52 40.1 18.33 36.61 19.52 33.56C20.75 30.4 22.39 27.72 25.06 25.05C27.73 22.39 30.4 20.75 33.56 19.52C36.61 18.33 40.1 17.52 45.21 17.29C50.33 17.06 51.97 17 65 17ZM60.7 25.64C51.75 25.65 50.03 25.71 45.61 25.91C40.93 26.12 38.39 26.9 36.69 27.56C34.45 28.43 32.85 29.47 31.17 31.15C29.49 32.83 28.45 34.43 27.58 36.67C26.93 38.37 26.14 40.91 25.93 45.59C25.7 50.65 25.65 52.16 25.65 64.98C25.65 77.79 25.7 79.31 25.93 84.37C26.14 89.05 26.93 91.59 27.58 93.28C28.45 95.53 29.49 97.12 31.17 98.8C32.85 100.48 34.45 101.52 36.69 102.39C38.39 103.05 40.93 103.83 45.61 104.05C50.67 104.28 52.19 104.33 65 104.33C77.82 104.33 79.34 104.28 84.4 104.05C89.08 103.83 91.62 103.05 93.31 102.39C95.55 101.52 97.15 100.48 98.83 98.8C100.51 97.12 101.55 95.53 102.42 93.29C103.08 91.6 103.86 89.06 104.07 84.38C104.3 79.32 104.35 77.8 104.35 64.99C104.35 52.18 104.3 50.66 104.07 45.6C103.86 40.92 103.08 38.38 102.42 36.69C101.55 34.45 100.51 32.85 98.83 31.17C97.15 29.49 95.55 28.45 93.31 27.58C91.62 26.92 89.08 26.14 84.4 25.93C79.34 25.7 77.82 25.65 65 25.65C63.4 25.65 61.97 25.65 60.7 25.65L60.7 25.64ZM90.63 33.62C93.81 33.62 96.39 36.2 96.38 39.38C96.39 41.71 94.98 43.81 92.83 44.7C90.68 45.59 88.2 45.1 86.55 43.45C84.91 41.81 84.41 39.33 85.3 37.18C86.19 35.02 88.3 33.62 90.63 33.62L90.63 33.62ZM65 40.35C78.62 40.35 89.65 51.39 89.65 65C89.65 78.61 78.62 89.64 65 89.64C51.39 89.64 40.35 78.61 40.35 65C40.35 51.39 51.39 40.35 65 40.35L65 40.35ZM65 49C56.17 49 49 56.16 49 65C49 73.84 56.17 81 65 81C73.84 81 81 73.84 81 65C81 56.16 73.84 49 65 49Z" />
</svg>